<svg xmlns="http://www.w3.org/2000/svg" xml:space="preserve" viewBox="0 0 2578 518"><path fill="#FDFDFE" d="M1920 519H1V1h2578v518zm-56.64-51.395s.072.093-.13.782c2.244 2.804 4.405 5.794 9.351 3.893.396.088.792.176 1.46.918 3.906 2.837 7.64 2.703 11.877-.809.704-.038 1.409-.076 2.602.37 3.528-2.205 7.056-4.41 10.538-6.7 0 0 .085.046.774-.012 1.783-3.344 3.566-6.688 5.344-10.74.091-.703.182-1.405.932-2.392 4.204-7.603 1.393-14.738-1.68-21.734-.653-1.488-2.491-2.455-3.863-3.756 0 0-.094-.077.16-.759-2.035-3.982-4.996-6.651-10.314-6.893-.392-.109-.784-.217-1.42-.963-5.632-3.822-11.432-3.627-17.917.746-.7.075-1.4.15-2.552-.254l-5.576 2.146c0-8.129.032-15.543-.01-22.957-.03-5.091-1.877-7.21-6.109-7.204-6.25.01-7.644 1.23-7.652 7.044-.03 21.456-.012 42.913-.01 64.369 0 2.329-.089 4.663.04 6.984.131 2.356 1.026 3.895 4.632 2.618 1.728-.04 3.455-.081 5.606.348 1.28-1.711 2.56-3.422 3.916-5.045m-214.09-2.268c3.145 3.58 6.006 7.648 12.323 6.89.399.088.797.176 1.517.895 5.47 2.44 10.869 3.051 16.799-.758.704-.065 1.408-.13 2.537.297 6.853-1.81 8.413-4.756 7.446-13.9-.366-3.465-1.401-4.374-4.762-2.225-3.243 2.074-6.902 3.748-10.605 4.796-6.306 1.784-14.376-1.665-17.26-6.786-3.229-5.737-2.336-15.538 2.35-19.83 2.793-2.558 6.337-4.293 10.344-6.555 1.622.065 3.244.13 5.033.862 3.824 2.15 7.613 4.37 11.506 6.386.64.332 2.02.085 2.575-.422 1.813-1.66 1.002-11.831-1.106-13.393-5.917-4.383-19.16-8.45-26.88-1.992-.699.104-1.397.208-2.464-.184-14.247 5.394-19.539 20.577-16.84 33.056.954 4.413 1.64 10.197 7.647 12.104 0 0 .092.076-.16.759M13.573 197.557c-.06.407-.12.815-.755 1.587-.863 3.363-2.36 6.702-2.487 10.092-.902 24.156.54 47.92 10.473 70.596 5.373 12.264 12.775 22.949 22.704 31.543 16.155 13.982 35.337 20.752 56.559 23.936 20.478 3.073 40.459.214 60.59-1.296 11.142-.836 22.161-3.36 33.224-5.198 3.922-.652 5.525-3.53 5.8-7.11.816-10.587 1.397-21.194 2.211-31.782a1919 1919 0 0 1 2.891-33.717c.311-3.286-.119-6.554-3.376-7.375-1.461-.368-4.194 1.932-5.491 3.664-9.509 12.694-18.4 25.87-28.28 38.261-8.588 10.771-18.012 20.981-30.747 27.18-6.506 3.166-12.993 3.544-19.284-.96-9.61-6.878-14.247-17.218-17.134-27.77-3.864-14.124-7.174-28.71-8.076-43.26-1.23-19.841-2.008-39.903 1.818-59.713.688-3.565.18-7.4 1.116-10.87 2.169-8.04 5.094-15.873 7.318-23.9 2.243-8.092 6.56-14.757 12.608-20.414 6.404-5.989 14.688-6.718 22.444-2.432 13.388 7.4 23.343 18.66 33.002 29.996 9.106 10.689 16.952 22.445 25.59 33.546 1.306 1.676 3.911 2.34 5.915 3.473.899-2.139 2.577-4.294 2.532-6.413-.09-4.274-1.412-8.508-1.709-12.794-1.191-17.231-2.297-34.471-3.177-51.72-.234-4.59-2.673-6.723-6.606-7.393-10.894-1.857-21.78-4.267-32.764-4.98-14.806-.96-29.463-3.193-44.586-1.671-14.605 1.47-28.59 3.808-42.384 8.912-16.897 6.252-30.402 16.769-41.307 30.625-7.34 9.327-12.84 19.932-15.963 31.502-1.339 4.96-1.83 10.15-2.669 15.855m797.082 117.346c3.787-.153 7.574-.306 12.232-.413 2.036-.039 4.071-.078 6.592.29 1.29-1.473 3.112-2.74 3.774-4.456 2.618-6.785 4.736-13.762 7.294-20.571 3.99-10.622 8.319-21.118 12.266-31.755 5.042-13.587 9.848-27.261 15.089-41.822 1.154 2.2 2.036 3.534 2.59 4.992 6.046 15.895 11.998 31.826 18.061 47.715 5.546 14.533 11.123 29.055 16.946 43.477.453 1.122 2.96 1.413 5.366 2.144 1.71-.02 3.418-.04 5.796.4 4.118-.154 8.236-.307 13.208-.414 1.709-.023 3.418-.046 5.66.352 1.122-.691 2.891-1.134 3.266-2.112 4.657-12.16 9.225-24.36 13.59-36.629 5.983-16.816 11.753-33.707 17.65-50.553 4.49-12.83 8.9-25.688 13.598-38.441 3.755-10.192 7.474-20.434 11.968-30.308 5.192-11.41 12.573-21.43 21.74-30.105 1.09-1.032 1.774-3.217 1.518-4.669-.146-.833-2.561-1.79-3.96-1.799a4408 4408 0 0 0-55.994.002c-1.407.009-3.947 1.091-3.977 1.764-.069 1.521.705 3.534 1.842 4.574 4.16 3.805 8.782 7.109 12.905 10.95 4.771 4.445 8.633 9.932 6.94 16.687-3.469 13.846-7.514 27.558-11.697 41.21-3.038 9.918-6.735 19.631-10.03 29.472-2.189 6.54-4.185 13.142-6.422 20.204-.666-.834-1.197-1.25-1.4-1.788-4.43-11.744-8.965-23.451-13.19-35.27-6.017-16.833-11.554-33.841-17.762-50.602-4.825-13.027-3.634-19.721 6.449-28.826.865-.781 1.773-1.525 2.57-2.372 2.242-2.38 1.481-5.146-1.722-5.888-1.433-.332-2.984-.196-4.481-.197-29.164-.011-58.328-.012-87.492-.013-1 0-2 .023-3 .038-3.86.058-3.938 2.49-2.894 5.117.52 1.309 1.804 2.37 2.888 3.39 7.167 6.741 11.757 15.195 15.397 24.107 4.766 11.67 9.037 23.543 13.44 35.36 1.384 3.714 2.572 7.334.94 11.537-2.818 7.26-5.102 14.73-7.558 22.129-2.53 7.622-5 15.264-7.824 23.902-1.403-1.927-2.444-2.838-2.827-3.97-2.175-6.44-4.093-12.966-6.284-19.4-4.851-14.247-9.893-28.43-14.703-42.69-3.702-10.978-7.436-21.96-10.544-33.11-.73-2.618.224-6.449 1.79-8.795 2.637-3.953 6.507-7.063 9.596-10.747 1.016-1.211 2.05-3.465 1.564-4.586-.51-1.172-2.81-1.625-4.386-2.246-.576-.227-1.318-.031-1.985-.031-29.33 0-58.662-.037-87.992.08-1.89.008-3.774 1.202-5.661 1.844.864 2.015 1.436 4.232 2.652 6.007 2.988 4.361 7.123 8.131 9.273 12.836 5.746 12.576 10.962 25.416 15.897 38.339 8.853 23.18 17.268 46.527 26.013 69.75 7.92 21.03 16.077 41.972 24.007 63 .975 2.586 2.23 3.48 5.626 2.52 1.71-.023 3.42-.047 5.792.389M404.327 210.827c10.188-7.37 17.102-16.954 20.212-29.259 3.28-12.972 1.43-25.152-5.957-36.19-9.3-13.899-23.602-20.447-39.052-24.646-15.506-4.214-31.438-5.515-47.484-5.508-35.159.015-70.318-.021-105.476.073-1.71.005-3.417 1.061-5.126 1.627 1.112 1.587 1.87 3.824 3.393 4.656 11.052 6.028 15.118 15.683 15.114 27.677-.014 49.322-.02 98.644 0 147.966.005 12.461-4.743 22.1-16.006 28.217-1.243.675-1.725 2.75-2.56 4.176 1.458.474 2.916 1.358 4.375 1.361 33.326.078 66.652.071 99.978.027 1.875-.002 3.75-.458 5.625-.703q.314-.708.627-1.417c-1.443-1.318-2.73-2.884-4.356-3.913-10.254-6.487-15.318-15.374-15.029-27.848.46-19.818.031-39.655.193-59.483.016-1.934 1.534-3.856 2.354-5.783 1.95 1.424 4.792 2.424 5.703 4.342 6.103 12.845 11.47 26.044 17.698 38.825 8.475 17.387 17.701 34.41 26.143 51.813 1.796 3.704 3.959 4.235 7.332 4.228 25.827-.054 51.655.008 77.482-.103 1.946-.008 3.887-1.065 5.83-1.634-1.034-1.818-1.808-3.858-3.146-5.415-5.52-6.424-12.306-12.034-16.642-19.152-16.256-26.683-31.76-53.824-47.368-80.896-.49-.85.543-3.46 1.593-4.16 4.527-3.02 9.325-5.634 14.55-8.878m990.075-92.763c-16.785-.944-33.56-2.414-50.356-2.71-26.15-.46-52.314-.16-78.472-.048-1.847.007-3.69 1.112-5.534 1.707 1.147 1.576 1.95 3.77 3.495 4.628 10.576 5.865 14.902 15.01 14.895 26.724-.029 49.983-.061 99.966.011 149.95.017 12.09-5.056 20.962-15.532 26.954-1.306.748-1.976 2.608-2.94 3.952 1.505.604 3.01 1.73 4.518 1.735 34.988.095 69.978.254 104.965-.01 19.067-.144 37.647-3.185 55.31-11.009 17.78-7.875 32.096-19.843 42.87-35.832 4.401-6.533 8.095-13.757 10.846-21.139 4.118-11.05 6.074-22.677 7.196-34.496 2.211-23.283-.898-45.442-12.796-65.842-10.314-17.685-26.262-28.964-44.909-36.058-10.453-3.976-21.773-5.671-33.567-8.506m-713.423 164.51c5.847-9.48 8.958-20.141 10.655-30.832 2.261-14.239 3.83-28.643 2.146-43.272-2.393-20.785-7.577-40.462-20.405-57.341-19.07-25.093-45.89-35.893-76.116-38.747-17.842-1.684-35.849-1.503-53.63 2.572-11.58 2.653-22.796 6.393-32.843 12.397-14.08 8.414-25.526 19.775-33.579 34.479-6.068 11.08-10.214 22.878-11.885 35.095-1.974 14.429-3.05 29.018-1.248 43.8 2.377 19.494 7.661 37.745 19.335 53.594 18.078 24.544 43.72 35.924 73.118 39.366 20.058 2.347 40.318 2.358 59.961-3.087 10.444-2.895 21.092-6.411 30.374-11.83 14.437-8.427 26.282-20.133 34.117-36.194m491.895 48.477c15.832 0 31.665-.068 47.496.05 3.843.029 5.554-.782 5.533-5.288-.192-42.33-.183-84.66-.083-126.99.03-12.994.33-25.994.856-38.977.39-9.62 2.427-19.07 9.162-26.301 4.462-4.79 10.242-8.341 15.336-12.563.988-.818 1.532-2.172 2.28-3.279-1.33-.83-2.587-1.832-4.015-2.426-.854-.354-1.973-.07-2.973-.07-18.499 0-36.998-.066-55.496.081-2.582.02-5.155 1.092-7.733 1.678 1.838 2.077 3.306 4.766 5.573 6.13 13.857 8.34 20.984 20.576 21.253 36.568.54 32.153.784 64.31 1.063 96.467.013 1.515-.828 3.037-1.27 4.556l-1.35.214c-.326-.572-.646-1.148-.98-1.715-7.314-12.403-14.427-24.93-21.984-37.182-21.205-34.375-42.635-68.61-63.836-102.987-1.876-3.042-4.115-3.862-7.378-3.853-24.665.07-49.33.01-73.995.113-1.56.006-4.335.883-4.437 1.638-.281 2.083.268 4.431 1.061 6.45.498 1.267 2.049 2.108 3.091 3.176 11.86 12.14 21.29 25.403 21.127 43.457-.35 39.157-.34 78.32-.975 117.472-.17 10.435-3.332 20.432-11.327 27.94-3.236 3.04-7.338 5.151-10.61 8.16-1.474 1.355-1.88 3.873-2.772 5.864 1.577.538 3.15 1.536 4.73 1.545 19.164.108 38.33.096 57.495.034 1.99-.006 3.978-.525 5.967-.806l.643-1.805c-2.472-1.92-4.798-4.074-7.44-5.722-12.443-7.764-19.282-18.807-20.012-33.514-.529-10.644-1.327-21.289-1.427-31.939-.22-23.496-.081-46.996-.067-70.494.001-1.578.19-3.155.39-6.281 2.061 2.035 3.346 2.91 4.103 4.116 4.925 7.848 9.79 15.734 14.574 23.67 23.83 39.54 47.591 79.12 71.55 118.583 1.164 1.919 3.951 2.852 6.877 4.23m596.278-198.88 10.903-2.705c.15 2.376.363 4.172.363 5.967.01 53.165-.22 106.332.144 159.495.091 13.371-3.81 23.68-15.665 30.508-1.206.694-1.754 2.533-2.607 3.84 1.412.59 2.823 1.691 4.236 1.695 33.832.092 67.665.084 101.497-.01 1.234-.004 2.465-1.06 3.698-1.625-.762-1.302-1.201-3.197-2.336-3.816-11.472-6.256-15.857-16.094-15.833-28.796.103-53.664.014-107.33-.076-160.994-.007-4.302 1.473-5.79 5.758-4.507 16.165 4.837 28.45 14.983 37.358 28.845 5.497 8.555 9.28 18.207 13.96 27.3.563 1.092 1.93 1.771 2.923 2.642.8-1.2 1.963-2.309 2.3-3.628.353-1.383-.066-2.97-.183-4.465-1.59-20.257-3.372-40.502-4.642-60.779-.303-4.841-1.8-6.031-6.48-6.02-58.998.152-117.996.153-176.995-.01-4.472-.012-5.728 1.568-6.006 5.636-1.473 21.6-3.162 43.186-4.645 64.786-.108 1.578.829 3.228 1.28 4.844 1.424-1.343 3.382-2.428 4.175-4.075 2.581-5.354 4.361-11.11 7.125-16.357 8.832-16.762 21.33-29.844 39.748-37.771M1537.59 302.37c-2.388-13.309 3.036-25.14 7.205-37.17.394-1.137 2.45-2.402 3.747-2.414 16.498-.156 32.999-.17 49.496.033 1.638.02 4.284 1.367 4.723 2.68 3.94 11.796 7.945 23.61 10.897 35.673.951 3.888-.182 9.063-2.143 12.685-2.272 4.196-6.563 7.277-9.858 10.95-1.142 1.273-1.925 2.87-2.873 4.318 1.73.64 3.453 1.295 5.193 1.905.296.104.661.01.994.01l99.997-.004c1 0 2.002.017 3-.036 3.705-.198 3.66-2.223 2.126-4.704-.686-1.111-1.683-2.081-2.691-2.935-9.675-8.183-13.986-19.509-18.212-30.897a10287 10287 0 0 0-12.5-33.503c-4.13-11.01-8.312-21.998-12.432-33.01-4.119-11.007-8.163-22.042-12.29-33.046-5.114-13.64-10.277-27.26-15.424-40.888-5.206-13.781-10.29-27.61-15.684-41.318-2.383-6.059-2.854-5.618-8.806-2.537-14.077 7.286-28.33 14.243-42.65 21.042-4.814 2.285-10.046 3.69-15.373 5.6 4.195 8.111 8.07 15.233 11.527 22.554.85 1.801.975 4.461.343 6.364-4.023 12.103-8.357 24.102-12.578 36.14-4.056 11.566-8.084 23.142-12.152 34.704-4.232 12.03-8.191 24.166-12.84 36.033-3.851 9.83-7.65 19.87-13.094 28.833-5.452 8.978-12.969 16.693-19.438 25.072-1.108 1.435-1.5 3.421-2.222 5.153 1.688.462 3.374 1.318 5.064 1.327 18.165.095 36.332.103 54.497-.015 1.79-.012 3.575-1.02 5.362-1.565-1.062-1.694-1.764-3.848-3.245-5.004-7.428-5.794-14.19-12.044-17.666-22.03m731.443-50.891c-2.308 6.746-4.275 13.634-7.005 20.205-3.932 9.462-7.575 19.213-12.903 27.88-5.424 8.822-12.791 16.44-19.18 24.683-1.143 1.474-1.67 3.425-2.48 5.156 1.804.542 3.6 1.516 5.414 1.552 8.328.166 16.66.068 24.991.066 10.164-.002 20.329.05 30.491-.07 1.333-.015 2.655-.916 3.982-1.406-.626-1.4-.936-3.113-1.947-4.133-1.977-1.994-4.414-3.522-6.537-5.384-6.499-5.7-12.067-12.16-12.83-21.167-.998-11.783 3.616-22.494 7.502-33.251.465-1.286 2.637-2.764 4.034-2.78 16.493-.188 32.991-.225 49.482.055 1.716.03 4.342 2.003 4.932 3.653 3.407 9.518 6.116 19.286 9.472 28.824 3.628 10.313 1.648 18.893-6.772 25.93-1.276 1.067-2.695 2.032-3.721 3.307-1.145 1.422-1.918 3.144-2.854 4.736 1.6.566 3.196 1.622 4.796 1.626 33.99.092 67.981.087 101.971-.005 1.612-.004 3.22-.977 4.83-1.499-.656-1.441-.964-3.241-2.023-4.267-8.267-8.008-13.995-17.427-17.822-28.335-5.703-16.255-12.15-32.249-18.213-48.38-5.073-13.498-9.994-27.053-15.08-40.547-5.96-15.812-12.05-31.575-18.04-47.376-6.338-16.723-12.573-33.486-18.968-50.188-1.989-5.197-2.964-5.207-7.875-2.5-9.704 5.35-19.38 10.804-29.392 15.525-7.452 3.514-15.376 6.055-23.167 8.812-5.32 1.882-6.082 3.307-3.471 8.211 3.033 5.699 6.27 11.296 9.098 17.093.768 1.574.989 3.92.428 5.558-4.023 11.756-8.38 23.397-12.5 35.12-6.154 17.51-12.199 35.06-18.643 53.296m274.463-120.249c4.14-3.55 8.174-7.237 12.456-10.607 3.105-2.443 1.582-3.919-.806-5.08-1.102-.534-2.61-.297-3.935-.297-32.642-.013-65.285-.038-97.928.067-1.688.006-3.372 1.15-5.058 1.764 1.023 1.474 1.714 3.576 3.122 4.322 11.55 6.117 15.456 16.284 15.467 28.522.042 48.631.008 97.262.028 145.893.005 12.86-4.09 23.374-16.194 29.667-1.16.604-1.633 2.53-2.425 3.842 1.54.566 3.081 1.622 4.624 1.626 33.142.095 66.285.095 99.427.016 1.84-.004 3.678-.845 5.518-1.296-1.303-1.699-2.282-3.875-3.963-5.017-8.93-6.06-14.402-13.644-14.356-25.09.206-50.962-.004-101.925.242-152.887.024-4.964 2.145-9.918 3.78-15.445M898.597 37.955c-6.04-8.725-14.277-14.5-24.575-16.627-20.499-4.233-42.04 13.406-42.646 34.517-.41 14.287 8.478 28.534 21.211 34 14.36 6.164 30.184 3.273 41.103-7.371 9.995-9.745 14.239-28.387 4.907-44.52M2197.368 275.12c-5.65-.821-11.429-2.844-16.923-2.246-18.935 2.061-31.905 21.053-25.176 40.935 6.508 19.23 31.853 26.151 46.937 14.67 9.876-7.516 14.556-16.981 13.057-29.27-1.343-11.01-7.15-18.981-17.895-24.089M1135.72 471.865c1.797.174 3.606.265 5.389.537 4.32.66 6.194-.935 5.687-5.46-.313-2.796-.061-5.656-.061-8.487 0-14.028.001-13.89 14.218-14.041 3.588-.038 5.503 1.527 7.177 4.231 3.395 5.487 7.518 10.632 10.14 16.458 2.934 6.52 7.48 8.211 13.835 7.267 1.39-.206 2.741-.68 4.11-1.03-.473-1.337-.703-2.833-1.46-3.983-4.548-6.916-9.23-13.744-13.836-20.621-1.184-1.767-2.237-3.725.758-4.734 8.493-2.862 12.21-9.294 12.933-17.662 1.331-15.408-5.338-25.288-21.08-26.6-11.417-.952-22.968-.215-34.455-.431-3.455-.065-4.274 1.503-4.213 4.53.113 5.66.004 11.324.033 16.987.087 17.47.196 34.942.825 53.04m497.55-60.142c.187-5.221.58-10.03-6.203-12.314-8.24-2.775-16.324-3.57-24.886-2.366-13.385 1.882-20.006 7.17-21.782 20.16-1.227 8.974.958 15.96 10.24 19.218 7.143 2.507 14.848 3.371 22.187 5.39 3.385.93 7.304 2.11 9.558 4.513 4.819 5.137.42 13.761-7.495 14.925-11.126 1.637-21.862.91-31.279-6.417-.92-.716-3.877-.55-4.338.182-1.934 3.075.417 10.464 3.405 12.763 8.28 6.373 34.79 7.618 45.006.926 12.556-8.224 12.05-30.789-.638-35.462-6.132-2.258-12.63-3.527-18.972-5.202-3.825-1.01-7.795-1.607-11.473-2.994-3.94-1.486-5.92-6.804-3.386-9.925 2.259-2.78 5.57-5.857 8.84-6.445 9.226-1.66 18.461-1.296 26.554 4.831.816.618 3.048-.635 4.661-1.783m-1018.784 45.64c6.726.06 13.947-1.857 16.584 7.903 2.117 7.837 7.102 9.314 15.739 5.763-1.358-2.973-2.724-5.935-4.067-8.906-9.32-20.63-18.728-41.222-27.883-61.926-2.014-4.554-5.598-2.416-8.558-2.78-2.429-.299-4.546-.133-5.923 3.045-5.913 13.648-12.297 27.092-18.416 40.652-4.474 9.915-8.804 19.897-13.195 29.842 8.086 3.642 12.18 1.71 15.62-5.377 4.41-9.091 1.18-8.142 11.616-8.21 5.829-.039 11.658-.007 18.483-.006M1961.307 257.74c-1.298 3.732-2.408 7.542-3.931 11.18-4.133 9.872-7.463 20.26-12.945 29.336-5.77 9.55-13.707 17.784-20.578 26.685-1.008 1.305-1.358 3.118-2.012 4.697 1.583.651 3.163 1.86 4.75 1.87 19.164.127 38.33.128 57.494-.023 1.483-.011 2.956-1.41 4.433-2.165-.771-1.496-1.23-3.31-2.371-4.43-3.905-3.83-8.461-7.064-12.009-11.18-5.75-6.67-8.876-14.514-6.876-23.528 1.395-6.287 2.924-12.584 5.017-18.662 1.065-3.091 1.058-7.772 6.24-7.779 16.165-.02 32.33-.076 48.494.121 1.632.02 4.293 1.327 4.704 2.607 3.945 12.267 7.67 24.613 11.036 37.05.62 2.293.158 5.7-1.212 7.554-3.684 4.984-8.192 9.353-12.23 14.089-.972 1.14-2.157 2.981-1.835 4.092.305 1.052 2.41 1.688 3.82 2.27.715.294 1.646.073 2.479.073 33.663 0 67.327.024 100.99-.071 1.961-.006 3.92-.985 5.879-1.511-.945-2.129-1.372-4.796-2.926-6.29-6.2-5.962-11.113-12.663-14.164-20.747-3.313-8.78-6.813-17.488-10.18-26.247a2185 2185 0 0 1-8.408-22.231c-4.145-11.141-8.206-22.313-12.362-33.45-4.212-11.29-8.484-22.555-12.75-33.823-4.203-11.099-8.474-22.171-12.633-33.286-3.24-8.662-6.287-17.397-9.548-26.051-2.953-7.84-6.078-15.614-9.3-23.863-2.542 1.152-4.557 1.886-6.398 2.928-17.394 9.845-34.47 20.33-54.32 24.882-3.091.708-5.967 2.295-3.15 6.742 2.728 4.304 4.011 9.605 7.068 13.596 4.545 5.932 3.28 11.467 1.038 17.54a3106 3106 0 0 0-15.45 42.861c-5.22 14.808-10.275 29.673-15.854 45.164m-695.245 212.528c4.66 4 8.67 3.011 11.41-2.81 13.348 9.407 28.367 6.654 36.618-.97 7.526-6.954 11.605-20.497 6.162-32.295-9.02-19.552-24.978-19.13-42.968-11.13 0-8.726-.05-16.502.022-24.277.035-3.653-.717-6.043-5.246-5.962-4.413.078-6.255 1.54-6.222 6.18.168 23.488.097 46.978.224 71.264M807 428.559c-4.484-6.488-11.014-8.857-18.525-10.196-6.62-1.18-12.552.303-18.191 2.97-8.728 4.128-12.347 12.014-13.947 21.101-1.89 10.727 4.215 22.474 13.9 27.44 9.385 4.81 19.19 3.999 28.786 2.026 8.818-1.813 11.143-7.148 7.999-14.905-5.397 1.925-10.675 4.313-16.205 5.657-7.692 1.87-14.502-.436-19.684-6.542-1.05-1.238-1.224-3.22-1.801-4.859 1.511-.466 3.018-1.319 4.534-1.335 10.665-.115 21.336-.232 31.996.03 4.287.107 6.062-1.588 5.305-5.529-.99-5.149-2.445-10.208-4.167-15.858m66.02 44.618c2.48-.283 5.111-.13 7.417-.922 9.776-3.36 12.724-4.543 9.81-15.404-5.19 1.921-10.265 4.234-15.578 5.662-7.636 2.053-14.502.042-19.907-5.84-1.225-1.332-1.644-3.404-2.434-5.135 1.767-.56 3.527-1.581 5.302-1.606 10.663-.152 21.332.05 31.99-.213 1.567-.039 4.285-1.778 4.431-2.98.824-6.743-.519-13.119-4.545-18.855-7.23-10.298-23.057-12.116-34.39-7.665-14.796 5.812-20.673 27.487-11.71 40.723 6.97 10.295 17.232 12.721 29.614 12.235m222.118-47.793c-4.249-4.84-10.158-5.602-16-6.956-6.614-1.533-12.474.331-18.13 2.99-7.985 3.755-11.618 10.773-13.523 19.134-2.62 11.5 3.075 23.96 13.569 29.345 9.354 4.8 19.174 4.019 28.755 2.013 8.791-1.84 10.932-6.853 8.18-14.38-7.127 1.96-14.105 4.977-21.276 5.542-7.245.57-17.477-5.195-16.448-12.684 1.795-.169 3.715-.497 5.636-.506 10.322-.05 20.647-.172 30.964.056 4.025.09 5.16-1.48 5.174-5.257.027-7.071-1.682-13.42-6.901-19.297m656.097-1.39c-.99-1.59-1.647-4.103-3.03-4.601-4.323-1.556-6.998.599-7.448 5.37-13.972-10.924-29.52-7.445-38.316 1.224-8.74 8.616-10.178 26.15-2.311 36.364 3.092 4.015 7.591 8.026 12.257 9.525 9.752 3.132 19.671 2.293 28.693-5.273-.202 5.988 3.09 6.244 6.861 5.824 4.488-.5 3.22-3.992 3.238-6.556.099-13.66.048-27.32.056-41.877m-782.729 49.43 19.066-4.676c.846.85 2.07 3.188 3.7 3.517 5.46 1.103 6.685-.14 6.693-6.044.019-13.65-.129-27.302-.124-40.953.002-5.565-1.369-7.167-6.632-5.9-1.735.418-2.943 3.023-4.67 4.936-1.047-.723-2.556-1.956-4.232-2.89-8.967-4.992-18.053-4.462-26.998-.069-11.609 5.701-15.317 21.833-13.035 30.901 2.578 10.25 9.601 20.706 26.232 21.178m822.138-8.562c12.141 12.304 25.33 10.143 39.218 2.452-.31 5.1 2.693 5.42 6.4 5.144 4.687-.349 3.33-3.83 3.357-6.356.145-13.662.053-27.327.218-40.989.062-5.22-.749-6.591-5.836-5.734-2 .337-3.622 2.927-5.751 4.783-.767-.53-2.214-1.578-3.706-2.559-7.307-4.8-20.154-4.337-27.481-.29-14.19 7.84-17.946 30.825-6.42 43.549m-425.641-46.045c-7.607-2.212-14.71-.455-21.584 2.824-8.277 3.948-12.022 11.166-13.501 19.69-1.934 11.14 1.827 20.236 10.722 27.198 8.128 6.362 22.318 5.745 29.962 2.177 8.691-4.056 13.113-11.013 14.83-20.707 2.657-14.986-7.215-29.091-20.43-31.182m-162.973 29.175c2.88 22.58 20.678 29.216 39.134 23.602 12.087-3.676 19.658-15.313 16.523-32.574-3.617-19.91-25.506-25.52-41.203-17.751-10.548 5.22-14.042 14.832-14.454 26.723m304.789 11.371c.34 3.475-1.578 7.878 2.597 9.954 10.996 5.47 22.446 6.243 33.226-.032 6.779-3.947 6.856-11.152 5.528-18.21-.868-4.613-4.895-8.5-10.24-9.54-4.725-.918-9.544-1.403-14.212-2.53-1.668-.404-3.863-1.887-4.275-3.32-.412-1.436.65-3.921 1.887-5.042 1.465-1.328 3.958-2.593 5.738-2.294 4.957.834 9.768 2.523 14.656 3.8 1.095.286 2.767.81 3.319.3 2.346-2.166.401-11.293-2.722-12.233-8.23-2.477-16.61-3.64-24.925-.33-7.766 3.091-11.948 12.62-9.366 20.595 2.1 6.487 7.235 8.602 13.236 9.645 4.235.736 8.53 1.266 12.655 2.408 1.359.377 3.12 2.354 3.165 3.651.056 1.647-1.064 4.32-2.358 4.832-3.09 1.223-6.738 2.37-9.869 1.836-4.418-.754-8.553-3.105-12.848-4.666-1.718-.625-3.755-3.291-5.192 1.176m532.002 1.51c3.1 4.87 4.459 9.77 1.35 15.316-2.334 4.167-4.286 8.573-6.078 13.006-.474 1.172-.243 3.62.55 4.145 3.894 2.574 9.74.246 11.574-4.191 2.21-5.343 4.426-10.685 6.78-15.965 7.786-17.473 15.637-34.918 23.453-52.353-6.615-3.717-11.25-2.152-13.793 4.22-3.616 9.056-7.37 18.058-11.18 27.033-.381.897-1.554 2.005-2.369 2.013-.77.008-1.899-1.159-2.28-2.059-3.729-8.825-7.364-17.691-10.967-26.57-2.763-6.81-6.604-8.22-14.19-4.78 1.327 3.123 2.661 6.269 4.003 9.411 4.278 10.024 8.56 20.046 13.147 30.775M752.104 337.504c-.006 5.164.048 10.33-.039 15.493-.068 4.036 1.64 5.844 5.79 5.379a85 85 0 0 1 9.443-.546q110.704-.043 221.41 0c2.815.001 5.64.25 8.446.525 5.161.504 6.547-.692 6.568-6.043.03-7.83-.011-15.66-.004-23.49.006-6.73.017-6.728-6.55-6.728-78.635.001-157.27-.005-235.904.01-10.64.003-9.062-1.15-9.158 9.405-.015 1.665-.002 3.332-.002 5.995m-47.483 116.5c2.129 7.846 6.987 13.549 14.252 16.903 6.872 3.173 14.252 3.066 21.517 1.561 10.387-2.151 11.607-5.014 8.558-15.746-.452.157-.945.227-1.32.476a89 89 0 0 0-3.637 2.575c-5.966 4.418-16.087 4.342-21.92-.175-7.557-5.852-9.297-16.601-3.883-23.985 5.881-8.02 17.693-9.817 25.82-3.962 1.532 1.104 3.17 2.063 4.85 3.148 2.962-7.2 1.955-12.033-3.261-14.38-8.986-4.043-18.278-3.313-27.004.496-12.728 5.556-17.205 20.785-13.972 33.09m774.73-35.8c-3.082.646-6.413.747-9.205 2.025-18.478 8.458-21.596 34.396-6.61 46.929 8.018 6.706 17.263 7.013 26.855 5.377 10.973-1.871 12.003-5.311 9.308-15.414-4.452 1.912-8.793 4.36-13.455 5.66-10.609 2.96-22.398-7.967-20.665-18.775 2.325-14.502 17.79-20.593 29.673-11.736 1.333.993 2.976 1.569 4.61 2.407 2.168-8.788 1.033-13.074-4.558-14.623-4.866-1.348-10.08-1.438-15.953-1.85m-819.5 24.85c6.885-20.08 19.927-16.922 34.043-8.405 2.17-8.422 1.119-12.286-4.031-14.484-8.563-3.656-17.634-3.317-25.734.217-18.96 8.27-21.348 35.08-6.031 47.176 8.051 6.359 17.116 6.591 26.493 4.946 10.867-1.907 11.97-5.356 8.946-15.746-14.392 7.414-14.907 7.542-21.637 5.396-8.187-2.612-12.48-9.02-12.048-19.1m1346.869 30.457c1.657-.11 3.313-.266 4.972-.32 5.231-.168 7.502-2.761 6.683-7.988-.175-1.113-.225-2.244-.39-3.962-1.833.297-3.492.262-4.893.846-6.38 2.659-10.897.23-11.478-6.693-.403-4.795-.235-9.641-.246-14.465-.028-11.836-.013-11.981 11.728-12.213 4.298-.085 5.443-1.842 5.086-5.825-.436-4.859-3.986-3.628-6.71-3.67-9.688-.147-9.804-.073-10.023-9.734-.068-2.979-1.285-4.22-4.025-4.56-4.98-.617-6.358.453-6.448 6.07-.078 4.91-.235 9.108-7.088 8.32-3.464-.399-3.674 2.311-3.738 5.07-.07 3.022 1.15 4.415 4.08 4.2 4.8-.352 5.934 2.186 5.761 6.455-.241 5.981-.274 11.988-.023 17.968.516 12.287 2.799 18.81 16.752 20.501m-994.82-55.058c-1.784.259-3.562.684-5.351.74-3.3.103-4.05 1.85-4.086 4.864-.037 3.184 1.014 4.79 4.258 4.518 4.822-.403 5.906 2.228 5.833 6.446-.127 7.312-.005 14.634.18 21.947.353 13.841 10.163 17.459 20.984 16.184 6.755-.796 6.98-1.465 6.975-8.179-.003-3.823-1.814-4.307-4.713-3.232-7.8 2.893-11.773.655-12.226-7.558-.385-6.966-.167-13.968-.147-20.954.01-3.187 1.415-4.942 4.919-4.685 2.647.194 5.32.08 7.98.029 2.496-.048 3.767-1.01 4.029-3.874.48-5.252-2.49-5.57-6.435-5.545-9.98.064-10.121-.017-10.412-9.816-.114-3.819-2.297-4.35-5.198-4.39-2.98-.04-5.188.66-5.17 4.413.013 2.795-.543 5.593-1.42 9.092m413.006 52.747c.229-1.955.628-3.908.65-5.866.047-4.13-1.394-4.994-5.158-3.297-6.09 2.745-10.621.551-11.381-6.038-.588-5.1-.409-10.297-.433-15.451-.052-11.555-.018-11.595 11.586-11.905 3.179-.085 5.36-.52 5.366-4.646.006-3.952-1.796-4.928-5.162-4.819-2.495.08-4.999-.06-7.49.069-2.99.154-4.305-1.253-4.298-4.131.003-1.499-.006-2.997-.011-4.495-.017-4.765-1.652-6.075-6.334-5.673-4.205.362-4.023 3.292-3.932 6.14.16 5.003-.42 9.01-7.132 8.248-3.472-.395-3.708 2.263-3.775 5.036-.073 3.03 1.146 4.433 4.08 4.182 5.105-.436 6.077 2.356 6.063 6.757-.028 8.478-.081 17.007.82 25.413.345 3.212 2.6 7.008 5.169 9.038 6.23 4.923 13.531 4.56 21.372 1.438m336.757-71.358c0 22.499.158 45-.115 67.495-.064 5.241 2.786 5.02 6.306 5.182 3.57.164 5.443-.47 5.402-4.846-.215-22.83-.102-45.663-.097-68.495 0-3.336-.013-6.425-4.803-6.388-4.32.033-7.32.988-6.693 7.052m188.654 27.657c.006-9.819-.013-19.638.031-29.456.017-3.727-1.507-5.434-5.447-5.253-3.668.168-6.096.994-6.084 5.335.07 23.299.107 46.599-.013 69.897-.026 5.15 3.416 4.237 6.48 4.469 3.344.252 5.211-.437 5.135-4.551-.244-13.143-.098-26.293-.102-40.44M819.94 443.498c-.001 7.986.238 15.982-.09 23.954-.216 5.221 2.947 4.891 6.436 5.078 3.761.201 5.246-.854 5.207-5.016-.207-22.624-.114-45.251-.082-67.877.005-3.743.013-7.126-5.337-6.837-5.033.272-6.137 1.252-6.138 6.775-.005 14.308.003 28.616.004 43.923m118.35-16.434c1.16-8.3-3.15-9.656-9.622-9.208-4.717.326-9.315 2.379-14.783 3.888.612.515.128.285-.082-.097-2.01-3.648-5.514-3.128-8.27-2.065-1.35.521-2.393 3.578-2.42 5.504-.201 13.972.1 27.952-.215 41.92-.12 5.3 2.714 5.33 6.563 5.56 4.495.268 5.022-1.824 5.112-5.658.215-9.11.427-18.286 1.696-27.287 1.244-8.82 8.513-12.424 16.906-9.577 2.127.722 4.78 1.712 5.115-2.98m507.993 24.435c.005-9.311-.132-18.625.08-27.931.094-4.071-2.01-4.86-5.286-4.576-2.837.246-6.329-.553-6.308 4.214.066 15.13.06 30.26.025 45.39-.011 5.011 3.738 3.596 6.438 3.846 2.842.264 5.33.145 5.13-3.985-.26-5.308-.074-10.638-.079-16.958m517.5-28.285c.006 14.818.191 29.638-.075 44.45-.098 5.457 3.322 4.605 6.592 4.836 3.437.244 5.132-.62 5.07-4.64-.223-14.48-.092-28.967-.095-43.451 0-2.306.523-5.217-2.887-5.269-3.142-.047-7.235-1.699-8.605 4.074m-41.998-4.52c-4.233.002-5.537 2.058-5.461 6.277.25 13.966.364 27.946-.038 41.904-.158 5.478 2.475 5.767 6.633 5.911 4.32.15 5.811-1.216 5.73-5.68a1178 1178 0 0 1-.004-42.404c.083-4.653-1.594-6.481-6.86-6.008m-2.778-21.108c-3.822 1.929-3.76 5.555-2.681 8.577.69 1.934 3.417 4.403 5.197 4.376 2.384-.036 5.518-1.723 6.86-3.699 1.136-1.67.897-5.073-.006-7.158-1.67-3.858-5.367-3.009-9.37-2.096m-482.536.358c-.806 1.55-1.957 3.02-2.349 4.669-.974 4.099 1.223 7.377 4.863 7.762 2.48.262 5.737-1.812 7.784-3.752 2.611-2.476 1.6-6.25-.962-7.797-2.302-1.39-5.751-.881-9.336-.882m538.753-.633c-.594-.292-1.164-.652-1.785-.866-4.182-1.444-8.946-.14-10.482 2.838-2.07 4.017-.577 9.637 3.153 11.862 3.018 1.8 7.688.458 10.395-3.363 2.39-3.374 1.934-6.833-1.281-10.47"/><path fill="#053564" d="M404.065 211.068c-4.963 3.003-9.761 5.617-14.288 8.637-1.05.7-2.083 3.31-1.593 4.16 15.608 27.072 31.112 54.213 47.368 80.896 4.336 7.118 11.123 12.728 16.642 19.152 1.338 1.557 2.112 3.597 3.145 5.415-1.942.57-3.883 1.626-5.829 1.634-25.827.11-51.655.05-77.482.103-3.373.007-5.536-.524-7.332-4.228-8.442-17.404-17.668-34.426-26.143-51.813-6.229-12.78-11.595-25.98-17.698-38.825-.91-1.918-3.754-2.918-5.703-4.342-.82 1.927-2.338 3.85-2.354 5.783-.162 19.828.267 39.665-.193 59.483-.289 12.474 4.775 21.361 15.03 27.848 1.625 1.03 2.912 2.595 4.355 3.913l-.627 1.417c-1.875.245-3.75.701-5.625.703-33.326.044-66.652.051-99.978-.027-1.46-.003-2.917-.887-4.376-1.36.836-1.426 1.318-3.502 2.561-4.177 11.263-6.116 16.01-15.756 16.006-28.217-.02-49.322-.014-98.644 0-147.966.004-11.994-4.062-21.649-15.114-27.677-1.524-.832-2.28-3.07-3.393-4.656 1.709-.566 3.416-1.622 5.126-1.627 35.158-.094 70.317-.058 105.476-.073 16.046-.007 31.978 1.294 47.484 5.508 15.45 4.2 29.751 10.747 39.052 24.645 7.388 11.039 9.236 23.219 5.957 36.191-3.11 12.305-10.024 21.89-20.474 29.5m-76.875-82.051c-3.15-.285-6.328-.392-9.441-.9-4.104-.667-5.182 1.023-5.147 4.93.158 17.977.077 35.957.079 53.935 0 9.323-.147 18.65.128 27.963.047 1.597 1.678 4.306 2.925 4.524 10.394 1.823 24.745-5.496 30.18-14.809 7.804-13.37 9.554-27.988 7.607-42.871-2.032-15.527-8.807-28.174-26.331-32.772"/><path fill="#043564" d="M1394.834 118.12c11.362 2.779 22.682 4.474 33.135 8.45 18.647 7.094 34.595 18.373 44.909 36.058 11.898 20.4 15.007 42.56 12.796 65.842-1.122 11.82-3.078 23.446-7.196 34.496-2.75 7.382-6.445 14.606-10.847 21.14-10.773 15.988-25.09 27.956-42.868 35.831-17.664 7.824-36.244 10.865-55.311 11.009-34.987.264-69.977.105-104.965.01-1.508-.004-3.013-1.131-4.519-1.735.965-1.344 1.635-3.204 2.941-3.952 10.476-5.992 15.55-14.865 15.532-26.955-.072-49.983-.04-99.966-.01-149.949.006-11.714-4.32-20.859-14.896-26.724-1.545-.858-2.348-3.052-3.495-4.628 1.845-.595 3.687-1.7 5.534-1.707 26.158-.112 52.322-.413 78.472.048 16.796.296 33.571 1.766 50.788 2.766m9.005 145.251c1.227-10.403 2.977-20.777 3.575-31.216 1.416-24.714.694-49.302-9.168-72.583-7.667-18.097-20.37-29.864-41.019-31.094-6.033-.36-6.02-.579-6.02 5.666q0 82.228.005 164.457c0 2.165-.055 4.336.07 6.496.475 8.284 5.88 12.813 14.203 12.413 7.67-.369 13.595-4.053 18.554-9.41 11.47-12.387 15.945-27.994 19.8-44.729"/><path fill="#053565" d="M680.86 282.927c-7.716 15.708-19.561 27.414-33.998 35.841-9.282 5.419-19.93 8.935-30.374 11.83-19.643 5.445-39.903 5.434-59.96 3.087-29.399-3.442-55.041-14.822-73.119-39.366-11.674-15.849-16.958-34.1-19.335-53.594-1.803-14.782-.726-29.371 1.248-43.8 1.671-12.217 5.817-24.015 11.885-35.095 8.053-14.704 19.5-26.065 33.58-34.48 10.046-6.003 21.262-9.743 32.843-12.396 17.78-4.075 35.787-4.256 53.629-2.572 30.226 2.854 57.047 13.654 76.116 38.747 12.828 16.88 18.012 36.556 20.405 57.34 1.684 14.63.115 29.034-2.146 43.273-1.697 10.69-4.808 21.352-10.775 31.185m-87.61-143.618c-1.393-1.861-2.687-3.807-4.196-5.57-10.184-11.896-25.543-12.096-35.917-.366-5.891 6.663-8.598 14.917-10.3 23.394-5.795 28.881-2.95 57.724 1.572 86.389 2.137 13.548 5.83 26.87 9.183 40.201 2.694 10.707 7.425 20.551 14.816 28.874 11.988 13.498 28.642 12.154 38.38-3.014 7.826-12.192 9.77-26.063 10.336-40.03 1.344-33.251-1.768-66.077-10.678-98.268-3.014-10.892-6.45-21.537-13.195-31.61"/><path fill="#013262" d="M915.994 314.444c-1.71.02-3.419.04-5.743-.3-1.159-.972-1.924-1.495-2.211-2.21-4.355-10.854-8.735-21.699-12.932-32.614-5.801-15.09-11.401-30.26-17.197-45.352-2.239-5.831-4.704-11.58-7.244-17.287-.466-1.047-1.786-1.713-2.712-2.555-.752.947-1.778 1.784-2.21 2.86-2.076 5.163-3.978 10.395-5.968 15.594-7.117 18.6-14.293 37.177-21.347 55.801-3.264 8.619-6.297 17.325-9.435 25.992-2.036.04-4.071.078-6.804-.223-4.53-.13-8.364.082-12.197.293-1.71.024-3.42.048-5.747-.292-1.379-.992-2.53-1.468-2.844-2.271-2.979-7.648-5.844-15.34-8.686-23.04-3.56-9.647-6.968-19.352-10.626-28.962-3.8-9.983-7.966-19.828-11.709-29.832-4.285-11.455-8.138-23.071-12.439-34.52-5.956-15.858-12.242-31.592-18.213-47.444-2.983-7.92-7.227-14.89-13.478-20.652-1.218-1.122-1.918-2.805-2.858-4.23 1.665-.422 3.328-1.207 4.994-1.211 28.331-.076 56.663-.054 84.995-.054 1 0 2.021-.13 2.995.03 2.845.465 3.438 1.904 1.397 4.023-1.73 1.796-3.659 3.4-5.45 5.14-4.943 4.802-8.943 10.179-6.866 17.526 1.747 6.18 4.207 12.16 6.383 18.216 3.105 8.637 6.353 17.224 9.332 25.904 3.704 10.789 7.154 21.664 10.796 32.475 1.992 5.91 4.027 11.812 6.296 17.618.99 2.532 2.616 4.814 4.298 7.828 1.27-1.628 1.824-2.068 2.022-2.633 2.65-7.54 5.284-15.087 7.852-22.656 3.035-8.944 6.249-17.84 8.842-26.913.748-2.618.221-5.988-.744-8.64-4.065-11.182-8.302-22.312-12.89-33.288-4.452-10.648-8.834-21.413-17.507-29.63-.953-.905-1.297-2.453-1.923-3.702 1.343-.435 2.686-1.247 4.03-1.25 28.665-.073 57.33-.072 85.996-.01 1.627.003 3.254.646 6.017 1.233-3.45 3.614-6.307 6.122-8.567 9.085-3.547 4.65-6.822 9.653-4.797 15.968 4.588 14.313 9.1 28.658 14.056 42.845 6.023 17.24 12.406 34.357 18.812 51.46.846 2.26 2.747 4.124 4.16 6.172 1.48-2.04 3.581-3.872 4.34-6.152 4.95-14.887 9.588-29.878 14.371-44.821 3.356-10.485 6.813-20.937 10.164-31.423 2.942-9.202 5.641-18.578-1.931-26.847-4.005-4.373-8.795-8.026-13.223-12.012-1.43-1.286-2.835-2.597-4.252-3.896l.727-1.149h59.534c-2.302 2.783-3.546 4.556-5.053 6.065-8.171 8.18-15.116 17.27-19.436 28.032-5.014 12.489-9.615 25.147-14.245 37.787-8.051 21.976-16.092 43.957-23.934 66.009-5.152 14.487-9.858 29.133-14.966 43.638-1.276 3.624-3.327 6.976-5.022 10.454-1.71.023-3.418.046-5.817-.272-4.855-.13-9.02.083-13.186.295"/><path fill="#083866" d="M1172.427 331.058c-2.479-1.385-5.266-2.318-6.43-4.237-23.959-39.462-47.72-79.044-71.55-118.584a1541 1541 0 0 0-14.574-23.67c-.757-1.205-2.042-2.08-4.103-4.115-.2 3.126-.389 4.703-.39 6.28-.014 23.499-.153 46.999.067 70.495.1 10.65.898 21.295 1.427 31.94.73 14.706 7.569 25.75 20.012 33.513 2.642 1.648 4.968 3.801 7.44 5.722l-.643 1.805c-1.99.281-3.977.8-5.967.806-19.165.062-38.33.074-57.496-.034-1.579-.009-3.152-1.007-4.729-1.545.891-1.99 1.298-4.509 2.772-5.865 3.272-3.008 7.374-5.12 10.61-8.159 7.995-7.508 11.158-17.505 11.327-27.94.634-39.152.624-78.315.975-117.472.162-18.054-9.267-31.316-21.127-43.457-1.042-1.068-2.593-1.91-3.091-3.177-.793-2.018-1.342-4.366-1.061-6.449.102-.755 2.878-1.632 4.437-1.638 24.665-.104 49.33-.044 73.995-.113 3.263-.009 5.502.81 7.378 3.853 21.201 34.377 42.631 68.612 63.836 102.987 7.557 12.252 14.67 24.78 21.984 37.182.334.567.654 1.143.98 1.715l1.35-.214c.442-1.52 1.283-3.041 1.27-4.556-.279-32.157-.523-64.314-1.063-96.467-.27-15.992-7.396-28.229-21.253-36.568-2.267-1.364-3.735-4.053-5.573-6.13 2.578-.586 5.151-1.657 7.733-1.678 18.498-.147 36.997-.08 55.496-.081 1 0 2.12-.284 2.973.07 1.428.594 2.686 1.596 4.015 2.426-.748 1.107-1.292 2.46-2.28 3.28-5.094 4.22-10.874 7.772-15.336 12.562-6.735 7.232-8.772 16.68-9.162 26.301a1021 1021 0 0 0-.856 38.976c-.1 42.33-.11 84.661.083 126.991.02 4.506-1.69 5.317-5.533 5.288-15.831-.118-31.664-.05-47.943-.043"/><path fill="#063665" d="M1768.803 132.359c-18.07 7.739-30.567 20.82-39.399 37.583-2.764 5.246-4.544 11.003-7.125 16.357-.793 1.647-2.75 2.732-4.175 4.075-.451-1.616-1.388-3.266-1.28-4.844 1.483-21.6 3.172-43.186 4.645-64.786.278-4.068 1.534-5.648 6.006-5.635 58.999.162 117.997.16 176.995.01 4.68-.012 6.177 1.178 6.48 6.02 1.27 20.276 3.053 40.521 4.642 60.778.117 1.495.536 3.082.183 4.465-.337 1.32-1.5 2.427-2.3 3.628-.994-.87-2.36-1.55-2.923-2.642-4.68-9.093-8.463-18.745-13.96-27.3-8.907-13.862-21.193-24.008-37.358-28.845-4.285-1.283-5.765.205-5.758 4.507.09 53.665.179 107.33.076 160.994-.024 12.702 4.361 22.54 15.833 28.796 1.135.62 1.574 2.514 2.336 3.816-1.233.566-2.464 1.62-3.698 1.624-33.832.095-67.665.103-101.497.011-1.413-.004-2.824-1.105-4.236-1.695.853-1.307 1.4-3.146 2.607-3.84 11.856-6.827 15.756-17.137 15.665-30.508-.364-53.163-.134-106.33-.144-159.495 0-1.795-.213-3.591-.363-5.967-3.96.982-7.431 1.844-11.252 2.893M1537.717 302.76c3.348 9.596 10.11 15.846 17.539 21.64 1.481 1.156 2.183 3.31 3.245 5.004-1.787.545-3.571 1.553-5.362 1.565-18.165.118-36.332.11-54.497.015-1.69-.01-3.376-.865-5.064-1.327.722-1.732 1.114-3.718 2.222-5.153 6.469-8.379 13.986-16.094 19.438-25.072 5.443-8.963 9.243-19.003 13.094-28.833 4.649-11.867 8.608-24.004 12.84-36.033 4.068-11.562 8.096-23.138 12.152-34.704 4.221-12.038 8.555-24.037 12.578-36.14.632-1.903.507-4.563-.343-6.364-3.457-7.32-7.332-14.443-11.527-22.554 5.327-1.91 10.56-3.315 15.374-5.6 14.32-6.799 28.572-13.756 42.649-21.042 5.952-3.08 6.423-3.522 8.806 2.537 5.393 13.708 10.478 27.537 15.684 41.318 5.147 13.627 10.31 27.248 15.425 40.888 4.126 11.004 8.17 22.039 12.289 33.046 4.12 11.012 8.303 22 12.431 33.01q6.28 16.74 12.501 33.503c4.226 11.388 8.537 22.714 18.212 30.897 1.008.854 2.005 1.824 2.691 2.935 1.533 2.481 1.58 4.506-2.127 4.704-.997.053-2 .036-3 .036l-99.996.004c-.333 0-.698.094-.994-.01-1.74-.61-3.464-1.265-5.193-1.905.948-1.449 1.73-3.045 2.873-4.318 3.295-3.673 7.586-6.754 9.858-10.95 1.961-3.622 3.094-8.797 2.143-12.685-2.952-12.063-6.956-23.877-10.897-35.673-.439-1.313-3.085-2.66-4.723-2.68-16.497-.204-32.998-.189-49.496-.033-1.296.012-3.353 1.277-3.747 2.413-4.169 12.03-9.593 23.862-7.078 37.561m54.724-67.97-18.09-54.54c-3.452 2.902-18.746 46.13-21.897 61.25.809.398 1.668 1.184 2.534 1.19 12.324.098 24.65.16 36.97-.048.813-.014 2.07-2.21 2.234-3.502.14-1.112-.987-2.385-1.751-4.35"/><path fill="#C18111" d="M2269.21 251.127c6.267-17.884 12.312-35.433 18.465-52.944 4.12-11.723 8.478-23.364 12.501-35.12.56-1.638.34-3.984-.428-5.558-2.829-5.797-6.065-11.394-9.098-17.093-2.61-4.904-1.848-6.329 3.471-8.211 7.791-2.757 15.715-5.298 23.167-8.812 10.013-4.72 19.688-10.175 29.392-15.525 4.91-2.707 5.886-2.697 7.875 2.5 6.395 16.702 12.63 33.465 18.969 50.188 5.99 15.801 12.08 31.564 18.04 47.376 5.085 13.494 10.006 27.05 15.08 40.548 6.061 16.13 12.509 32.124 18.212 48.38 3.827 10.907 9.555 20.326 17.822 28.334 1.059 1.026 1.367 2.826 2.023 4.267-1.61.522-3.218 1.495-4.83 1.5-33.99.09-67.98.096-101.97.004-1.6-.004-3.198-1.06-4.797-1.626.936-1.592 1.709-3.314 2.854-4.736 1.026-1.275 2.445-2.24 3.72-3.306 8.421-7.038 10.4-15.618 6.773-25.93-3.356-9.54-6.065-19.307-9.472-28.825-.59-1.65-3.216-3.624-4.932-3.653-16.49-.28-32.989-.243-49.482-.055-1.397.016-3.57 1.494-4.034 2.78-3.886 10.757-8.5 21.468-7.502 33.25.763 9.008 6.331 15.469 12.83 21.168 2.123 1.862 4.56 3.39 6.537 5.384 1.01 1.02 1.32 2.733 1.947 4.133-1.327.49-2.65 1.39-3.982 1.407-10.162.12-20.327.067-30.49.07-8.332 0-16.664.099-24.992-.067-1.815-.036-3.61-1.01-5.415-1.552.811-1.731 1.338-3.682 2.48-5.156 6.39-8.243 13.757-15.861 19.18-24.683 5.33-8.667 8.972-18.418 12.904-27.88 2.73-6.571 4.697-13.46 7.182-20.557M2308.5 244c5.662.002 11.325-.033 16.987.019 3.665.034 4.9-1.85 3.857-5.104-2.057-6.423-4.354-12.769-6.512-19.16-2.36-6.995-4.652-14.013-7.02-21.006-2.303-6.805-4.665-13.59-7.12-20.733-1.18.693-2.49.993-2.731 1.672-7.271 20.503-14.436 41.043-21.919 62.438 2.442.659 4.686 1.689 6.974 1.796 5.484.257 10.988.08 17.484.078"/><path fill="#043464" d="M13.395 198.78c.06-.408.12-.816.46-1.74 1.066-2.528 1.913-4.517 2.624-6.554 2.93-8.398 5.454-16.959 8.81-25.181 4.475-10.964 12.151-20.003 21.02-27.397 12.096-10.086 25.785-17.893 41.743-20.53 10.28-1.697 20.574-4.368 30.89-4.515 14.914-.212 29.894 1.054 44.768 2.488 9.88.952 19.652 3.175 29.405 5.16 1.358.276 3.217 2.366 3.349 3.757 2.05 21.693 3.875 43.407 5.658 65.124.104 1.258-.594 2.583-1.323 5.484-3.899-5.385-6.81-9.51-9.828-13.556-13.913-18.658-27.92-37.2-46.859-51.31-12.779-9.52-23.51-8.803-33.573 2.766-7.013 8.063-11.071 17.795-13.873 27.79-4.314 15.385-6.155 31.231-6.447 47.28-.516 28.313-.447 56.509 8.882 83.772 3.147 9.2 7.199 17.885 14.336 24.648 6.074 5.757 13.707 9.686 22.484 4.337 5.626-3.43 11.472-6.743 16.382-11.06 16.587-14.587 29.35-32.417 41.592-50.634 1.926-2.866 4.106-5.562 6.168-8.337l1.716.667c0 1.346.095 2.699-.014 4.036-1.75 21.551-3.747 43.086-5.131 64.66-.32 4.988-2.402 6.807-6.647 7.449-7.883 1.192-15.753 2.495-23.663 3.475-25.795 3.197-51.57 5.247-77.435.197-16.804-3.281-31.7-10.253-44.528-21.488-11.742-10.283-19.776-23.212-24.571-37.925-2.705-8.296-5.163-16.966-5.733-25.599-.938-14.23-.243-28.566-.273-42.858-.003-1.469-.253-2.938-.389-4.407"/><path fill="#C18010" d="M2543.251 131.514c-1.391 5.243-3.512 10.197-3.536 15.161-.246 50.962-.036 101.925-.242 152.887-.046 11.446 5.426 19.03 14.356 25.09 1.681 1.142 2.66 3.318 3.963 5.017-1.84.451-3.678 1.292-5.518 1.296-33.142.079-66.285.08-99.427-.016-1.543-.004-3.083-1.06-4.624-1.626.792-1.312 1.264-3.238 2.425-3.842 12.103-6.293 16.2-16.807 16.194-29.667-.02-48.631.014-97.262-.028-145.893-.01-12.238-3.917-22.405-15.467-28.522-1.408-.746-2.099-2.848-3.122-4.322 1.686-.614 3.37-1.758 5.058-1.764 32.643-.105 65.286-.08 97.928-.067 1.324 0 2.833-.237 3.935.298 2.388 1.16 3.91 2.636.806 5.079-4.282 3.37-8.316 7.056-12.7 10.891"/><path fill="#C18210" d="M898.791 38.26c9.137 15.827 4.893 34.469-5.102 44.214-10.919 10.644-26.743 13.535-41.103 7.371-12.733-5.466-21.621-19.713-21.21-34 .606-21.11 22.146-38.75 42.645-34.517 10.298 2.126 18.536 7.902 24.77 16.933"/><path fill="#6884A1" d="M935.264 314.631c1.428-3.688 3.48-7.04 4.755-10.664 5.108-14.505 9.814-29.15 14.966-43.638 7.842-22.052 15.883-44.033 23.934-66.01 4.63-12.639 9.231-25.297 14.245-37.786 4.32-10.761 11.265-19.851 19.436-28.032 1.507-1.51 2.751-3.282 5.053-6.065h-59.534l-.727 1.149c1.417 1.3 2.823 2.61 4.252 3.896 4.428 3.986 9.218 7.639 13.223 12.012 7.572 8.27 4.873 17.645 1.931 26.847-3.351 10.486-6.808 20.938-10.164 31.423-4.783 14.943-9.421 29.934-14.372 44.821-.758 2.28-2.86 4.113-4.34 6.152-1.412-2.048-3.313-3.913-4.16-6.172-6.405-17.103-12.788-34.22-18.811-51.46-4.956-14.187-9.468-28.532-14.056-42.845-2.025-6.315 1.25-11.318 4.797-15.968 2.26-2.963 5.117-5.47 8.567-9.085-2.763-.587-4.39-1.23-6.017-1.233-28.666-.062-57.33-.063-85.996.01-1.344.003-2.687.815-4.03 1.25.626 1.25.97 2.797 1.923 3.701 8.673 8.218 13.055 18.983 17.506 29.631 4.589 10.976 8.826 22.106 12.891 33.287.965 2.653 1.492 6.023.744 8.641-2.593 9.073-5.807 17.97-8.842 26.913-2.568 7.57-5.203 15.116-7.852 22.656-.198.565-.752 1.005-2.022 2.633-1.682-3.014-3.309-5.296-4.298-7.828-2.27-5.806-4.304-11.708-6.296-17.618-3.642-10.81-7.092-21.686-10.796-32.475-2.98-8.68-6.227-17.267-9.332-25.904-2.176-6.057-4.636-12.036-6.383-18.216-2.077-7.347 1.923-12.724 6.866-17.527 1.791-1.74 3.72-3.343 5.45-5.14 2.041-2.118 1.448-3.557-1.397-4.022-.974-.16-1.995-.03-2.995-.03-28.332 0-56.664-.022-84.995.054-1.666.004-3.33.79-4.994 1.211.94 1.425 1.64 3.108 2.858 4.23 6.251 5.763 10.495 12.732 13.478 20.652 5.971 15.852 12.257 31.586 18.213 47.444 4.3 11.449 8.154 23.065 12.44 34.52 3.742 10.004 7.908 19.85 11.708 29.832 3.658 9.61 7.066 19.315 10.626 28.962 2.842 7.7 5.707 15.392 8.686 23.04.313.803 1.465 1.28 2.418 2.236-2.354 1.359-3.608.464-4.583-2.122-7.93-21.028-16.088-41.97-24.007-63-8.745-23.223-17.16-46.57-26.013-69.75-4.935-12.923-10.15-25.763-15.897-38.34-2.15-4.704-6.285-8.474-9.273-12.835-1.216-1.775-1.788-3.992-2.652-6.007 1.887-.642 3.772-1.836 5.661-1.844 29.33-.117 58.661-.08 87.992-.08.667 0 1.409-.196 1.985.03 1.576.622 3.877 1.075 4.386 2.247.487 1.12-.548 3.375-1.564 4.586-3.089 3.684-6.959 6.794-9.596 10.747-1.566 2.346-2.52 6.177-1.79 8.794 3.108 11.151 6.842 22.133 10.544 33.11 4.81 14.262 9.852 28.444 14.703 42.692 2.19 6.433 4.11 12.96 6.284 19.398.383 1.133 1.424 2.044 2.827 3.971 2.825-8.638 5.293-16.28 7.824-23.902 2.456-7.399 4.74-14.868 7.558-22.129 1.632-4.203.444-7.823-.94-11.538-4.403-11.816-8.674-23.69-13.44-35.36-3.64-8.911-8.23-17.365-15.397-24.107-1.084-1.02-2.369-2.08-2.888-3.39-1.044-2.627-.965-5.058 2.895-5.116 1-.015 1.999-.038 2.999-.038q43.746-.002 87.492.013c1.497 0 3.048-.135 4.48.197 3.204.742 3.965 3.508 1.723 5.888-.797.847-1.705 1.59-2.57 2.373-10.083 9.104-11.274 15.798-6.45 28.825 6.209 16.76 11.746 33.769 17.763 50.603 4.225 11.818 8.76 23.525 13.19 35.27.203.538.734.953 1.4 1.787 2.237-7.062 4.233-13.665 6.422-20.204 3.295-9.84 6.992-19.554 10.03-29.472 4.183-13.652 8.228-27.364 11.697-41.21 1.693-6.755-2.169-12.242-6.94-16.687-4.123-3.841-8.745-7.145-12.905-10.95-1.137-1.04-1.91-3.053-1.842-4.574.03-.673 2.57-1.755 3.977-1.764q27.997-.18 55.994-.002c1.399.01 3.814.966 3.96 1.8.256 1.451-.427 3.636-1.517 4.668-9.168 8.674-16.549 18.695-21.74 30.105-4.495 9.874-8.214 20.116-11.969 30.308-4.698 12.753-9.108 25.612-13.599 38.44-5.896 16.847-11.666 33.738-17.649 50.554-4.365 12.27-8.933 24.468-13.59 36.63-.375.977-2.144 1.42-3.532 1.9"/><path fill="#063665" d="M2197.724 275.258c10.389 4.969 16.196 12.94 17.54 23.95 1.498 12.289-3.182 21.754-13.058 29.27-15.084 11.481-40.429 4.56-46.937-14.67-6.729-19.882 6.241-38.874 25.176-40.935 5.494-.598 11.274 1.425 17.279 2.385"/><path fill="#A2B2C4" d="M13.107 198.962c.424 1.286.674 2.755.677 4.224.03 14.292-.665 28.628.273 42.858.57 8.633 3.028 17.303 5.733 25.599 4.795 14.713 12.829 27.642 24.57 37.925 12.83 11.235 27.725 18.207 44.529 21.488 25.864 5.05 51.64 3 77.435-.197 7.91-.98 15.78-2.283 23.663-3.475 4.245-.642 6.327-2.461 6.647-7.449 1.384-21.574 3.38-43.109 5.131-64.66.109-1.337.014-2.69.014-4.036l-1.716-.667c-2.062 2.775-4.242 5.47-6.168 8.337-12.243 18.217-25.005 36.047-41.592 50.634-4.91 4.317-10.756 7.63-16.382 11.06-8.777 5.35-16.41 1.42-22.484-4.337-7.137-6.763-11.189-15.448-14.336-24.648-9.329-27.263-9.398-55.459-8.882-83.773.292-16.048 2.133-31.894 6.447-47.28 2.802-9.994 6.86-19.726 13.873-27.789 10.063-11.569 20.794-12.287 33.573-2.766 18.939 14.11 32.946 32.652 46.86 51.31 3.017 4.046 5.928 8.171 9.827 13.556.729-2.901 1.427-4.226 1.323-5.484-1.783-21.717-3.608-43.431-5.658-65.124-.132-1.391-1.991-3.481-3.35-3.757-9.752-1.985-19.523-4.208-29.404-5.16-14.874-1.434-29.854-2.7-44.767-2.488-10.317.147-20.612 2.818-30.89 4.516-15.959 2.636-29.648 10.443-41.745 20.529-8.868 7.394-16.544 16.433-21.02 27.397-3.355 8.222-5.88 16.783-8.81 25.181-.71 2.037-1.557 4.026-2.641 6.245.577-4.878 1.067-10.068 2.406-15.03 3.123-11.569 8.623-22.174 15.963-31.5 10.905-13.857 24.41-24.374 41.307-30.626 13.794-5.104 27.78-7.442 42.384-8.912 15.123-1.522 29.78.711 44.586 1.671 10.985.713 21.87 3.123 32.764 4.98 3.933.67 6.372 2.803 6.606 7.392.88 17.25 1.986 34.49 3.177 51.721.297 4.286 1.618 8.52 1.71 12.794.044 2.119-1.634 4.274-2.533 6.413-2.004-1.133-4.61-1.797-5.914-3.473-8.64-11.1-16.485-22.857-25.591-33.546-9.659-11.335-19.614-22.597-33.002-29.996-7.756-4.286-16.04-3.557-22.444 2.432-6.049 5.657-10.365 12.322-12.608 20.414-2.224 8.027-5.149 15.86-7.318 23.9-.936 3.47-.428 7.305-1.116 10.87-3.826 19.81-3.048 39.872-1.818 59.712.902 14.552 4.212 29.137 8.076 43.261 2.887 10.552 7.524 20.892 17.134 27.77 6.29 4.504 12.778 4.126 19.284.96 12.735-6.199 22.16-16.409 30.747-27.18 9.88-12.391 18.771-25.567 28.28-38.26 1.297-1.733 4.03-4.033 5.491-3.665 3.257.82 3.687 4.089 3.376 7.375a1919 1919 0 0 0-2.89 33.717c-.815 10.588-1.396 21.195-2.212 31.783-.275 3.579-1.878 6.457-5.8 7.109-11.063 1.838-22.082 4.362-33.224 5.198-20.131 1.51-40.112 4.369-60.59 1.296-21.222-3.184-40.404-9.954-56.56-23.936-9.928-8.594-17.33-19.28-22.703-31.543-9.934-22.675-11.375-46.44-10.473-70.596.127-3.39 1.624-6.73 2.775-10.274"/><path fill="#113D6A" d="M1135.456 471.552c-.365-17.784-.474-35.255-.561-52.726-.029-5.663.08-11.327-.033-16.987-.061-3.027.758-4.595 4.213-4.53 11.487.216 23.038-.521 34.455.43 15.742 1.313 22.411 11.193 21.08 26.601-.722 8.368-4.44 14.8-12.933 17.662-2.995 1.01-1.942 2.967-.758 4.734 4.606 6.877 9.288 13.705 13.836 20.62.757 1.15.987 2.647 1.46 3.983-1.369.351-2.72.825-4.11 1.031-6.354.944-10.901-.748-13.835-7.267-2.622-5.826-6.745-10.971-10.14-16.458-1.674-2.704-3.59-4.27-7.177-4.231-14.217.15-14.219.013-14.218 14.041 0 2.831-.252 5.691.061 8.487.507 4.525-1.368 6.12-5.687 5.46-1.783-.272-3.592-.363-5.653-.85m33.314-63.047c-5.979-.075-11.958-.147-17.937-.228-2.733-.037-4.344.81-4.24 4.03.19 5.81.173 11.634.005 17.446-.087 2.962 1.314 3.775 3.904 3.734 6.645-.106 13.338.287 19.915-.416 3.18-.34 6.596-2.16 9.107-4.261 4.105-3.437 3.736-8.707 2.063-12.943-1.922-4.868-6.395-7.41-12.817-7.362"/><path fill="#18426E" d="M1633.25 412.105c-1.594.767-3.826 2.02-4.642 1.402-8.093-6.127-17.328-6.49-26.554-4.83-3.27.587-6.581 3.664-8.84 6.444-2.534 3.121-.554 8.439 3.386 9.925 3.678 1.387 7.648 1.984 11.473 2.994 6.343 1.675 12.84 2.944 18.972 5.202 12.688 4.673 13.194 27.238.638 35.462-10.215 6.692-36.727 5.447-45.006-.926-2.988-2.3-5.34-9.688-3.405-12.763.46-.732 3.418-.898 4.338-.182 9.417 7.327 20.153 8.054 31.279 6.417 7.915-1.164 12.314-9.788 7.495-14.925-2.254-2.402-6.173-3.583-9.558-4.514-7.34-2.018-15.044-2.882-22.188-5.39-9.28-3.256-11.466-10.243-10.239-19.216 1.776-12.991 8.397-18.28 21.782-20.161 8.562-1.204 16.645-.409 24.886 2.366 6.782 2.284 6.39 7.093 6.183 12.695"/><path fill="#15406D" d="M613.987 457.363c-6.327 0-12.156-.032-17.985.007-10.435.068-7.205-.881-11.617 8.21-3.439 7.087-7.533 9.019-15.619 5.377 4.391-9.945 8.72-19.927 13.195-29.842 6.12-13.56 12.503-27.004 18.416-40.652 1.377-3.178 3.494-3.344 5.923-3.045 2.96.364 6.544-1.774 8.558 2.78 9.155 20.704 18.562 41.296 27.883 61.926 1.343 2.971 2.709 5.933 4.067 8.906-8.637 3.55-13.622 2.074-15.74-5.763-2.636-9.76-9.857-7.843-17.08-7.904m4.815-10.68c3.498-.095 3.178-1.994 2.132-4.363-2.665-6.03-5.258-12.094-7.911-18.13-1.555-3.54-3.17-7.053-4.759-10.578l-1.436.057-14.378 33.026c9.389 0 17.438 0 26.352-.013"/><path fill="#637F9D" d="M1961.533 257.414c5.353-15.165 10.408-30.03 15.629-44.838a3106 3106 0 0 1 15.45-42.86c2.24-6.074 3.506-11.609-1.039-17.541-3.057-3.99-4.34-9.292-7.067-13.596-2.818-4.447.058-6.034 3.149-6.742 19.85-4.552 36.926-15.037 54.32-24.882 1.841-1.042 3.856-1.776 6.397-2.928 3.223 8.25 6.348 16.024 9.301 23.863 3.26 8.654 6.307 17.389 9.548 26.05 4.16 11.116 8.43 22.188 12.633 33.287 4.266 11.268 8.538 22.534 12.75 33.822 4.156 11.138 8.217 22.31 12.362 33.451a2185 2185 0 0 0 8.407 22.23c3.368 8.76 6.868 17.469 10.181 26.248 3.051 8.084 7.964 14.785 14.164 20.746 1.554 1.495 1.981 4.162 2.926 6.29-1.96.527-3.918 1.506-5.879 1.512-33.663.095-67.327.07-100.99.071-.833 0-1.764.221-2.479-.073-1.41-.582-3.515-1.218-3.82-2.27-.322-1.11.863-2.951 1.836-4.092 4.037-4.736 8.545-9.105 12.23-14.09 1.37-1.852 1.832-5.26 1.211-7.553-3.366-12.437-7.09-24.783-11.036-37.05-.411-1.28-3.072-2.587-4.704-2.607-16.163-.197-32.33-.141-48.494-.12-5.182.006-5.175 4.687-6.24 7.778-2.093 6.078-3.622 12.375-5.017 18.662-2 9.014 1.127 16.858 6.876 23.528 3.548 4.116 8.104 7.35 12.009 11.18 1.14 1.12 1.6 2.934 2.372 4.43-1.478.755-2.95 2.154-4.434 2.165-19.164.151-38.33.15-57.494.023-1.587-.01-3.167-1.219-4.75-1.87.654-1.579 1.004-3.392 2.012-4.697 6.87-8.9 14.808-17.134 20.578-26.685 5.482-9.076 8.812-19.464 12.945-29.336 1.523-3.638 2.633-7.448 4.157-11.506m68.916-141.535c-7.669 3.775-15.242 7.763-23.035 11.259-6.148 2.757-12.529 5.02-18.887 7.273-2.5.886-3.255 2.147-2.046 4.428 3.01 5.674 6.546 11.126 8.946 17.043 1.22 3.01 1.385 7.128.405 10.234-3.805 12.054-8.295 23.891-12.465 35.832-3.138 8.987-6.074 18.045-9.288 27.004-4.203 11.715-8.477 23.407-12.934 35.027-4.092 10.67-7.432 21.817-13.004 31.679-5.716 10.116-13.756 18.916-20.733 28.326-1.15 1.549-2.065 3.27-3.432 5.464h62.034c-3.094-4.479-6.543-7.956-10.246-11.136-11.668-10.016-12.913-22.806-8.513-36.523 1.505-4.693 2.552-9.531 3.902-14.276.867-3.048 1.73-6.328 5.817-6.338 17.33-.042 34.662-.082 51.99.144 1.372.018 3.452 1.818 3.955 3.233 3.235 9.104 5.724 18.486 9.217 27.481 5.125 13.201 2.798 23.883-8.938 32.27-1.517 1.084-2.463 2.968-4.326 5.297h110.556c-1.216-1.923-1.783-3.368-2.8-4.342-8.157-7.809-14.113-16.882-17.644-27.726-2.735-8.4-6.477-16.468-9.581-24.756-3.22-8.595-6.127-17.307-9.328-25.91-3.205-8.613-6.684-17.124-9.895-25.735-3.15-8.446-6.031-16.992-9.182-25.438-3.435-9.21-7.06-18.348-10.574-27.529-3.22-8.409-6.384-16.84-9.609-25.247-2.17-5.657-4.486-11.26-6.582-16.944-2.311-6.272-4.445-12.609-6.792-19.307-4.535 2.342-8.576 4.381-12.566 6.516-1.305.698-2.479 1.643-4.422 2.697"/><path fill="#1A436F" d="M1266.004 469.87c-.07-23.888.002-47.378-.166-70.866-.033-4.64 1.81-6.102 6.222-6.18 4.529-.08 5.28 2.31 5.246 5.962-.073 7.775-.022 15.551-.022 24.277 17.99-8 33.947-8.422 42.968 11.13 5.443 11.798 1.364 25.341-6.162 32.295-8.25 7.624-23.27 10.377-36.618.97-2.74 5.821-6.75 6.81-11.468 2.411m13.054-32.009c-.348.935-.721 1.86-1.038 2.805-2.476 7.376.956 16.53 7.61 20.33 6.947 3.968 15.267 2.853 20.602-2.758 5.248-5.52 6.286-16.245 2.148-22.185-7.83-11.236-21.279-10.735-29.322 1.808"/><path fill="#1B4570" d="M807.235 428.835c1.488 5.374 2.943 10.433 3.933 15.582.757 3.94-1.018 5.636-5.305 5.53-10.66-.263-21.331-.146-31.996-.031-1.516.016-3.023.87-4.534 1.335.577 1.64.75 3.621 1.8 4.859 5.183 6.106 11.993 8.411 19.685 6.542 5.53-1.344 10.808-3.732 16.205-5.657 3.144 7.757.82 13.092-7.999 14.905-9.596 1.973-19.401 2.785-28.786-2.026-9.685-4.966-15.79-16.713-13.9-27.44 1.6-9.087 5.22-16.973 13.947-21.1 5.64-2.668 11.571-4.151 18.191-2.971 7.51 1.339 14.04 3.708 18.759 10.472m-10.356 11.382c3.247-.371 3.4-1.844 1.812-4.383-6.168-9.86-20.79-10.677-28.062-1.404-.84 1.07-1.74 3.24-1.248 3.939.746 1.058 2.68 1.737 4.126 1.769 7.494.167 14.993.077 23.372.08M872.58 473.254c-11.94.41-22.203-2.017-29.173-12.312-8.963-13.236-3.086-34.911 11.71-40.723 11.333-4.451 27.16-2.633 34.39 7.665 4.026 5.736 5.369 12.112 4.545 18.855-.146 1.202-2.864 2.941-4.43 2.98-10.659.263-21.328.06-31.991.213-1.775.025-3.535 1.045-5.302 1.606.79 1.731 1.21 3.803 2.434 5.135 5.405 5.882 12.27 7.893 19.907 5.84 5.313-1.428 10.388-3.74 15.578-5.662 2.914 10.861-.034 12.044-9.81 15.404-2.306.792-4.936.64-7.858.999m-15.026-42.351c-1.441 1.336-3.101 2.506-4.275 4.046-2.23 2.924-1.216 5.163 2.425 5.228 7.952.143 15.91.108 23.863.014 3.367-.04 3.938-1.5 2.145-4.438-4.197-6.878-14.963-10.9-24.158-4.85M1095.404 425.617c4.954 5.644 6.663 11.993 6.636 19.064-.014 3.776-1.149 5.346-5.174 5.257-10.317-.228-20.642-.107-30.964-.056-1.921.009-3.841.337-5.636.506-1.029 7.489 9.203 13.255 16.448 12.684 7.171-.565 14.149-3.582 21.277-5.541 2.75 7.526.61 12.538-8.18 14.379-9.582 2.006-19.402 2.787-28.756-2.013-10.494-5.385-16.189-17.845-13.569-29.345 1.905-8.361 5.538-15.38 13.523-19.133 5.656-2.66 11.516-4.524 18.13-2.99 5.842 1.353 11.751 2.114 16.265 7.188m-8.523 6.943c-9.196-8.064-20.22-4.632-25.514 1.968-.84 1.047-1.521 2.93-1.134 4.024.31.876 2.342 1.58 3.623 1.604 7.634.142 15.273.116 22.907.004 1.175-.017 2.9-.457 3.343-1.265.405-.739-.471-2.292-.989-3.39-.416-.884-1.138-1.624-2.236-2.945"/><path fill="#18426E" d="M1751.233 424.442c-.005 14.109.046 27.77-.053 41.429-.019 2.564 1.25 6.057-3.238 6.556-3.77.42-7.063.164-6.86-5.824-9.023 7.566-18.942 8.405-28.694 5.273-4.666-1.5-9.165-5.51-12.257-9.525-7.867-10.215-6.43-27.748 2.311-36.364 8.796-8.67 24.344-12.148 38.316-1.224.45-4.771 3.125-6.926 7.448-5.37 1.383.498 2.04 3.01 3.027 5.05m-24.37 38.57c1.388-.557 2.807-1.046 4.157-1.68 6.615-3.107 10.257-10.993 8.738-18.827-1.631-8.406-7.618-14.034-15.355-14.434-9.841-.51-18.314 7.695-18.253 17.674.064 10.599 8.855 18.312 20.713 17.267"/><path fill="#15406D" d="M968.072 473.42c-16.196-.468-23.219-10.924-25.797-21.174-2.282-9.068 1.426-25.2 13.035-30.901 8.945-4.393 18.031-4.923 26.998.07 1.676.933 3.185 2.166 4.232 2.889 1.727-1.913 2.935-4.518 4.67-4.936 5.263-1.267 6.634.335 6.632 5.9-.005 13.651.143 27.302.124 40.953-.008 5.905-1.233 7.147-6.694 6.044-1.63-.329-2.853-2.666-3.7-3.517-6.237 1.53-12.65 3.103-19.5 4.671m17.958-22.244c.263-1.3.583-2.59.78-3.9 1.306-8.739-5.665-18.034-14.295-19.092-9.2-1.128-17.199 4.693-19.31 14.052-1.947 8.636 3.961 18.103 12.94 20.733 7.717 2.261 16.224-2.484 19.885-11.793M1790.385 464.617c-11.267-12.48-7.511-35.465 6.679-43.303 7.327-4.048 20.174-4.512 27.481.29 1.492.98 2.94 2.028 3.706 2.558 2.13-1.856 3.75-4.446 5.75-4.783 5.088-.857 5.9.515 5.837 5.734-.165 13.662-.073 27.327-.218 40.989-.026 2.526 1.33 6.007-3.358 6.356-3.706.276-6.709-.045-6.4-5.144-13.887 7.691-27.076 9.852-39.477-2.697m12.262-33.691c-1.322 1.242-2.792 2.36-3.94 3.746-4.81 5.811-5.128 14.212-.912 20.949 3.565 5.697 11.562 9.173 17.675 7.391 7.042-2.053 11.78-6.257 12.925-14.014 1.03-6.965-.551-12.93-6.107-17.279-5.908-4.624-12.378-5.165-19.641-.793"/><path fill="#113D6A" d="M1889.236 419.448c.391.108.783.216 1.602.677 3.496 2.642 6.564 4.933 9.633 7.223 0 0 .094.077.215.461 1.615 4.995 3.518 9.523 4.47 14.242.725 3.59.24 7.424.293 11.15-.091.701-.182 1.403-.554 2.649-2.104 3.78-3.928 7.018-5.752 10.255 0 0-.085-.046-.422-.028-3.788 2.078-7.239 4.138-10.69 6.198-.704.038-1.409.076-2.907.02-4.315.02-7.836.134-11.356.248-.395-.087-.791-.175-1.674-.57a518 518 0 0 0-8.662-4.275s-.073-.093-.182-.45c-1.147.154-2.527.414-3.135 1.241-.715.974-.76 2.439-1.095 3.691-1.728.04-3.455.081-5.812-.293-.9-1.686-1.405-2.957-1.407-4.228-.05-22.942.017-45.885-.1-68.827-.02-3.602 1.605-4.65 4.793-4.715 3.202-.066 4.47 1.366 4.421 4.523-.106 6.981-.076 13.965-.021 20.947.012 1.663.34 3.324.647 6.115l7.433-5.922c.7-.074 1.4-.15 2.857-.122 6.305-.002 11.855-.106 17.405-.21m-15.7 9.083c-1.465.788-3.028 1.436-4.375 2.39-5.624 3.978-8.22 9.643-7.698 16.339.604 7.752 5.998 13.904 13.28 15.757 6.858 1.745 12.444-.772 16.821-5.996 4.494-5.362 5.371-14.356 1.848-20.116-4.345-7.102-10.769-10.06-19.877-8.374"/><path fill="#18426E" d="M1365.392 418.919c12.825 1.989 22.697 16.094 20.04 31.08-1.717 9.694-6.139 16.65-14.83 20.707-7.644 3.568-21.834 4.185-29.962-2.177-8.895-6.962-12.656-16.058-10.722-27.198 1.48-8.524 5.224-15.742 13.5-19.69 6.875-3.28 13.978-5.036 21.974-2.722m-24.691 25.783c.079 1.325.03 2.672.258 3.97 1.68 9.56 10.463 16.113 19.401 14.53 9.089-1.61 15.004-10.185 14.13-19.254-1.057-10.953-10.806-17.06-19.198-15.798-7.259 1.093-12.48 6.555-14.591 16.552M1201.978 447.585c.463-11.484 3.957-21.095 14.505-26.316 15.697-7.77 37.586-2.16 41.203 17.75 3.135 17.262-4.436 28.9-16.523 32.575-18.456 5.614-36.255-1.023-39.185-24.009m20.805-17.52c-7.466 4.007-11.169 12.423-8.88 20.183 2.474 8.393 9.895 13.887 17.767 13.153 8.581-.8 14.713-7.41 15.506-16.716 1.109-13.001-11.926-22.336-24.393-16.62"/><path fill="#1A436F" d="M1506.845 459.001c1.41-4.105 3.447-1.439 5.165-.814 4.295 1.561 8.43 3.912 12.848 4.666 3.131.534 6.78-.613 9.87-1.836 1.293-.512 2.413-3.185 2.357-4.832-.044-1.297-1.806-3.274-3.165-3.65-4.124-1.143-8.42-1.673-12.655-2.41-6.001-1.042-11.136-3.157-13.236-9.644-2.582-7.975 1.6-17.504 9.366-20.595 8.314-3.31 16.695-2.147 24.925.33 3.123.94 5.068 10.067 2.722 12.233-.552.51-2.224-.014-3.32-.3-4.887-1.277-9.698-2.966-14.655-3.8-1.78-.299-4.273.966-5.738 2.294-1.236 1.12-2.3 3.606-1.887 5.042.412 1.433 2.607 2.916 4.275 3.32 4.668 1.127 9.487 1.612 14.211 2.53 5.346 1.04 9.373 4.927 10.24 9.54 1.329 7.058 1.252 14.263-5.527 18.21-10.78 6.275-22.23 5.502-33.226.032-4.175-2.076-2.257-6.479-2.57-10.316M2038.667 460.52a80787 80787 0 0 1-12.994-30.42c-1.342-3.143-2.676-6.289-4.004-9.412 7.587-3.44 11.428-2.03 14.191 4.78 3.603 8.879 7.238 17.745 10.968 26.57.38.9 1.508 2.067 2.28 2.06.814-.009 1.987-1.117 2.368-2.014 3.81-8.975 7.564-17.977 11.18-27.033 2.544-6.372 7.178-7.937 13.793-4.22-7.816 17.435-15.667 34.88-23.454 52.353-2.353 5.28-4.57 10.622-6.779 15.965-1.835 4.437-7.68 6.765-11.574 4.19-.793-.523-1.024-2.972-.55-4.144 1.792-4.433 3.744-8.839 6.079-13.006 3.108-5.546 1.748-10.447-1.504-15.668"/><path fill="#D2A355" d="M752.104 337.005c0-2.164-.013-3.83.002-5.496.096-10.554-1.483-9.402 9.158-9.404 78.634-.016 157.269-.01 235.903-.01 6.568 0 6.557-.004 6.55 6.727-.006 7.83.035 15.66.005 23.49-.02 5.351-1.407 6.547-6.568 6.043-2.807-.275-5.63-.524-8.447-.525q-110.704-.043-221.41 0a85 85 0 0 0-9.442.546c-4.15.465-5.858-1.343-5.79-5.379.087-5.163.033-10.329.039-15.992m28.396-13.13h-26.258v31.227h146.521c31.806 0 63.612-.069 95.417.088 3.968.02 5.193-1.06 5.058-5.046-.289-8.582-.088-17.18-.088-26.27z"/><path fill="#1A436F" d="M704.475 453.626c-3.087-11.926 1.39-27.155 14.118-32.71 8.726-3.81 18.018-4.54 27.004-.497 5.216 2.347 6.223 7.18 3.261 14.38-1.68-1.085-3.318-2.044-4.85-3.148-8.127-5.855-19.939-4.058-25.82 3.962-5.414 7.384-3.674 18.133 3.883 23.985 5.833 4.517 15.954 4.593 21.92.175a89 89 0 0 1 3.638-2.575c.374-.25.867-.32 1.32-.476 3.048 10.732 1.828 13.595-8.559 15.746-7.265 1.505-14.645 1.612-21.517-1.56-7.265-3.355-12.123-9.058-14.398-17.282M1479.757 418.088c5.467.529 10.68.619 15.547 1.967 5.591 1.55 6.726 5.835 4.558 14.623-1.634-.838-3.277-1.414-4.61-2.407-11.883-8.857-27.348-2.766-29.673 11.736-1.733 10.808 10.056 21.735 20.665 18.776 4.662-1.3 9.003-3.749 13.455-5.661 2.695 10.103 1.665 13.543-9.308 15.414-9.592 1.636-18.837 1.329-26.855-5.377-14.986-12.533-11.868-38.471 6.61-46.93 2.792-1.277 6.123-1.378 9.611-2.141M659.752 443.462c-.332 9.673 3.96 16.08 12.148 18.693 6.73 2.146 7.245 2.018 21.637-5.396 3.023 10.39 1.921 13.839-8.946 15.746-9.377 1.645-18.442 1.413-26.493-4.946-15.317-12.097-12.93-38.905 6.031-47.176 8.1-3.534 17.171-3.873 25.734-.217 5.15 2.198 6.2 6.062 4.03 14.484-14.115-8.517-27.157-11.675-34.14 8.812"/><path fill="#1B4570" d="M2006.297 473.47c-13.53-1.65-15.812-8.172-16.328-20.46-.251-5.98-.218-11.986.023-17.967.173-4.269-.962-6.807-5.761-6.455-2.93.215-4.15-1.178-4.08-4.2.064-2.759.274-5.469 3.738-5.07 6.853.788 7.01-3.41 7.088-8.32.09-5.617 1.468-6.687 6.448-6.07 2.74.34 3.957 1.581 4.025 4.56.219 9.661.335 9.587 10.023 9.734 2.724.042 6.274-1.189 6.71 3.67.357 3.983-.788 5.74-5.086 5.825-11.741.232-11.756.377-11.728 12.213.01 4.824-.157 9.67.246 14.465.58 6.923 5.097 9.352 11.478 6.693 1.401-.584 3.06-.549 4.893-.846.165 1.718.215 2.85.39 3.962.819 5.227-1.452 7.82-6.683 7.988-1.659.054-3.315.21-5.396.277"/><path fill="#18426E" d="M1012.188 418.103c.59-3.148 1.146-5.946 1.133-8.741-.018-3.754 2.19-4.454 5.17-4.413 2.901.04 5.084.571 5.198 4.39.29 9.8.433 9.88 10.412 9.816 3.946-.025 6.915.293 6.435 5.545-.262 2.864-1.533 3.826-4.029 3.874-2.66.05-5.333.165-7.98-.03-3.504-.256-4.91 1.5-4.919 4.686-.02 6.986-.238 13.988.147 20.954.453 8.213 4.427 10.45 12.226 7.558 2.899-1.075 4.71-.591 4.713 3.232.005 6.714-.22 7.383-6.975 8.179-10.82 1.275-20.63-2.343-20.983-16.184-.187-7.313-.308-14.635-.18-21.947.072-4.218-1.012-6.85-5.834-6.446-3.244.271-4.295-1.334-4.258-4.518.035-3.014.786-4.76 4.086-4.864 1.79-.056 3.567-.481 5.638-1.09M1424.608 471.455c-7.542 2.868-14.842 3.23-21.073-1.692-2.57-2.03-4.824-5.826-5.168-9.038-.902-8.406-.85-16.935-.821-25.413.014-4.401-.958-7.193-6.064-6.757-2.933.251-4.152-1.152-4.079-4.182.067-2.773.303-5.43 3.775-5.036 6.713.762 7.292-3.245 7.132-8.248-.091-2.848-.273-5.778 3.932-6.14 4.682-.402 6.317.908 6.334 5.673.005 1.498.014 2.996.01 4.495-.006 2.878 1.308 4.285 4.299 4.13 2.491-.127 4.995.012 7.49-.068 3.366-.109 5.168.867 5.162 4.82-.007 4.126-2.187 4.56-5.366 4.645-11.604.31-11.638.35-11.586 11.905.024 5.154-.155 10.35.433 15.45.76 6.59 5.29 8.784 11.38 6.039 3.765-1.697 5.206-.833 5.16 3.297-.023 1.958-.422 3.91-.95 6.12"/><path fill="#214873" d="M1761.662 399.396c-.626-5.617 2.375-6.572 6.695-6.605 4.79-.037 4.804 3.052 4.803 6.388-.005 22.832-.118 45.665.097 68.495.041 4.376-1.832 5.01-5.402 4.846-3.52-.161-6.37.06-6.306-5.182.273-22.495.116-44.996.113-67.942M1950.318 428c.004 13.648-.142 26.798.102 39.94.076 4.115-1.79 4.804-5.135 4.552-3.064-.232-6.506.68-6.48-4.469.12-23.298.082-46.598.013-69.897-.012-4.341 2.416-5.167 6.084-5.335 3.94-.18 5.464 1.526 5.447 5.253-.044 9.818-.025 19.637-.03 29.956M819.941 443c-.002-14.808-.01-29.116-.005-43.424.001-5.523 1.105-6.503 6.138-6.775 5.35-.29 5.342 3.094 5.337 6.837-.032 22.626-.125 45.253.082 67.877.039 4.162-1.446 5.217-5.207 5.016-3.49-.187-6.652.143-6.437-5.078.33-7.972.09-15.968.092-24.454M938.296 427.463c-.342 4.294-2.994 3.304-5.121 2.582-8.393-2.847-15.662.757-16.906 9.577-1.27 9-1.48 18.177-1.696 27.287-.09 3.834-.617 5.926-5.112 5.658-3.85-.23-6.682-.26-6.563-5.56.316-13.968.014-27.948.215-41.92.027-1.926 1.07-4.983 2.42-5.504 2.756-1.063 6.26-1.583 8.27 2.065.21.382.694.612.082.097 5.468-1.509 10.066-3.562 14.783-3.888 6.472-.448 10.782.908 9.628 9.606"/><path fill="#113D6A" d="M1662.788 472.491c-.399-.088-.797-.176-1.663-.589-4.18-2.633-7.892-4.94-11.604-7.248 0 0-.092-.076-.209-.451-4.725-7.505-6.936-14.888-5.236-23.685 1.667-8.62 5.624-14.843 13.435-18.722.646-.32.993-1.24 1.48-1.882.698-.104 1.396-.208 2.856-.209 6.187.099 11.684-.472 17.02.215 9.847 1.268 10.764 4.692 8.579 13.553-1.478-.863-2.705-1.818-4.096-2.34-2.795-1.05-5.679-1.865-8.526-2.776-1.622-.065-3.244-.13-5.65-.28-1.774-.016-2.893-.227-3.738.16-6.721 3.078-11.553 7.827-12.312 15.542-.754 7.673 2.317 13.684 8.973 17.586 7.17 4.203 14.27 3.643 21.128-.95 1.29-.864 2.656-1.615 4.567-2.768.569 5.522 2.389 10.45-4.135 12.731-.672.235-1.097 1.177-1.636 1.791-.705.065-1.409.13-2.913.091-5.973.008-11.147.12-16.32.231"/><path fill="#214873" d="M1446.283 452c.005 5.82-.18 11.15.078 16.458.2 4.13-2.287 4.25-5.129 3.985-2.7-.25-6.45 1.165-6.438-3.846.035-15.13.04-30.26-.025-45.39-.02-4.767 3.47-3.968 6.308-4.214 3.276-.284 5.38.505 5.287 4.576-.213 9.306-.076 18.62-.081 28.43M1963.778 422.805c1.375-5.363 5.468-3.711 8.61-3.664 3.41.052 2.887 2.963 2.887 5.269.003 14.484-.128 28.97.095 43.451.062 4.02-1.633 4.884-5.07 4.64-3.27-.231-6.69.621-6.592-4.836.266-14.812.081-29.632.07-44.86"/><path fill="#6884A1" d="M829.238 314.577c2.895-8.87 5.928-17.577 9.192-26.196 7.054-18.624 14.23-37.201 21.347-55.801 1.99-5.199 3.892-10.431 5.968-15.594.432-1.076 1.458-1.913 2.21-2.86.926.842 2.246 1.508 2.712 2.555 2.54 5.707 5.005 11.456 7.244 17.287 5.796 15.093 11.396 30.261 17.197 45.352 4.197 10.915 8.577 21.76 12.932 32.614.287.715 1.052 1.238 1.784 2.184-1.364-.345-3.871-.636-4.324-1.758-5.823-14.422-11.4-28.944-16.946-43.477-6.063-15.889-12.015-31.82-18.06-47.715-.555-1.458-1.437-2.792-2.591-4.992-5.24 14.56-10.047 28.235-15.089 41.822-3.947 10.637-8.276 21.133-12.266 31.755-2.558 6.81-4.676 13.786-7.294 20.571-.662 1.715-2.485 2.983-4.016 4.253"/><path fill="#496B8E" d="M1922.18 418.69c4.871-.468 6.548 1.36 6.465 6.013-.251 14.131-.254 28.273.004 42.404.081 4.464-1.41 5.83-5.73 5.68-4.158-.144-6.79-.433-6.633-5.91.402-13.959.289-27.94.038-41.905-.076-4.219 1.228-6.275 5.856-6.282m3.98 12.833v-10.366h-6.579v49.557h6.58z"/><path fill="#A2B2C4" d="M1868.748 419.541c-1.917 1.947-4.06 3.654-7.207 6.16-.307-2.79-.635-4.45-.647-6.114-.055-6.982-.085-13.966.021-20.947.049-3.157-1.219-4.589-4.42-4.523-3.19.065-4.813 1.113-4.795 4.715.118 22.942.05 45.885.1 68.827.003 1.271.508 2.542.976 4.207-2.545 1.713-3.44.174-3.57-2.182-.13-2.321-.041-4.655-.041-6.984-.002-21.456-.02-42.913.01-64.37.008-5.813 1.403-7.034 7.652-7.043 4.232-.006 6.078 2.113 6.108 7.204.043 7.414.011 14.828.011 22.957 2.43-.935 4.003-1.54 5.802-1.907M1682.233 472.415c.327-.86.752-1.802 1.424-2.037 6.524-2.28 4.704-7.209 4.135-12.73-1.91 1.152-3.277 1.903-4.567 2.767-6.859 4.593-13.958 5.153-21.128.95-6.656-3.902-9.727-9.913-8.973-17.586.759-7.715 5.59-12.464 12.312-15.542.845-.387 1.964-.176 3.339-.08-2.824 2.266-6.368 4.001-9.16 6.559-4.687 4.292-5.58 14.093-2.35 19.83 2.883 5.121 10.953 8.57 17.26 6.786 3.702-1.048 7.36-2.722 10.604-4.796 3.361-2.149 4.396-1.24 4.762 2.224.967 9.145-.593 12.092-7.658 13.655"/><path fill="#214873" d="M1919.352 397.474c3.658-.8 7.356-1.65 9.025 2.209.903 2.085 1.142 5.487.007 7.158-1.343 1.976-4.477 3.663-6.86 3.7-1.78.026-4.508-2.443-5.198-4.377-1.08-3.022-1.141-6.648 3.026-8.69M1436.792 397.781c3.264.165 6.713-.344 9.015 1.046 2.562 1.547 3.573 5.32.962 7.797-2.047 1.94-5.305 4.014-7.784 3.752-3.64-.385-5.837-3.663-4.863-7.762.392-1.65 1.543-3.118 2.67-4.833"/><path fill="#A2B2C4" d="M1674.908 428.69a58 58 0 0 1 8.442 2.443c1.39.522 2.618 1.477 4.096 2.34 2.185-8.861 1.268-12.285-8.58-13.553-5.335-.687-10.832-.116-16.674-.293 6.613-6.484 19.857-2.416 25.774 1.967 2.108 1.562 2.919 11.733 1.106 13.393-.554.507-1.935.754-2.575.422-3.893-2.017-7.682-4.235-11.59-6.72M1658.806 419.666c-.302.89-.65 1.81-1.295 2.13-7.81 3.879-11.768 10.101-13.435 18.722-1.7 8.797.511 16.18 5.198 23.639-5.851-1.486-6.538-7.27-7.492-11.683-2.699-12.479 2.593-27.662 17.024-32.808M1975.523 397.544c2.916 3.406 3.371 6.865.982 10.239-2.707 3.82-7.377 5.163-10.395 3.363-3.73-2.225-5.223-7.845-3.153-11.862 1.536-2.978 6.3-4.282 10.482-2.838.62.214 1.191.574 2.084 1.098m-11.74 7.692c2.512 4.486 7.88 5.755 10.287 2.023 1.153-1.787 1.445-5.399.366-6.995-1.065-1.577-4.407-2.393-6.648-2.219-3.402.264-4.25 3.214-4.005 7.19M1905.779 453.058c-.383-3.583.102-7.417-.623-11.007-.952-4.72-2.855-9.247-4.43-14.195 1.211.87 3.049 1.837 3.702 3.325 3.073 6.996 5.884 14.13 1.35 21.877M1889.113 419.13c-5.427.422-10.977.526-16.94.445 5.386-4.392 11.186-4.587 16.94-.446M1662.948 472.806c5.013-.426 10.187-.538 15.814-.474-4.784 3.841-10.184 3.23-15.814.474M1873.904 472.87c3.384-.44 6.905-.555 10.876-.494-3.099 3.525-6.833 3.66-10.876.495M1649.395 464.996c3.838 1.966 7.55 4.273 11.423 6.89-5.543 1.099-8.404-2.968-11.423-6.89M1888.276 472.517c3.206-2.302 6.657-4.362 10.468-6.398-3.168 2.23-6.696 4.435-10.468 6.398"/><path fill="#6884A1" d="M916.328 314.674a90 90 0 0 1 12.425-.549c-3.855.472-7.973.625-12.425.549"/><path fill="#A2B2C4" d="M1900.598 427.007c-3.196-1.95-6.264-4.24-9.456-6.853 4.587-.14 7.548 2.53 9.456 6.853M1899.488 466.076c1.48-3.208 3.303-6.445 5.41-9.872a95 95 0 0 1-5.41 9.872"/><path fill="#6884A1" d="M810.325 314.673a76 76 0 0 1 11.43-.546c-3.525.47-7.312.623-11.43.546"/><path fill="#A2B2C4" d="M1863.332 468.042c2.825.978 5.55 2.301 8.458 3.923-4.155 2.216-6.316-.774-8.458-3.923M1859.232 472.415c.123-1.487.168-2.952.883-3.926.608-.827 1.988-1.087 3.097-1.285-1.21 2.024-2.489 3.735-3.98 5.211"/><path fill="#F8FAFB" d="M327.603 129.084c17.111 4.531 23.886 17.178 25.918 32.705 1.947 14.883.197 29.5-7.607 42.871-5.435 9.313-19.786 16.632-30.18 14.81-1.247-.219-2.878-2.928-2.925-4.525-.275-9.314-.128-18.64-.128-27.963-.002-17.978.079-35.958-.08-53.935-.034-3.907 1.044-5.597 5.148-4.93 3.113.508 6.291.615 9.854.967"/><path fill="#FAFBFC" d="M1403.788 263.791c-3.804 16.315-8.28 31.922-19.75 44.31-4.958 5.356-10.882 9.04-18.553 9.409-8.324.4-13.728-4.13-14.204-12.413-.124-2.16-.069-4.33-.069-6.496q-.005-82.23-.004-164.457c0-6.245-.014-6.026 6.02-5.666 20.649 1.23 33.351 12.997 41.018 31.094 9.862 23.281 10.584 47.87 9.168 72.583-.598 10.44-2.348 20.813-3.626 31.636"/><path fill="#FBFBFC" d="M593.496 139.579c6.499 9.803 9.935 20.448 12.95 31.34 8.909 32.191 12.021 65.017 10.677 98.268-.565 13.967-2.51 27.838-10.337 40.03-9.737 15.168-26.391 16.512-38.379 3.014-7.391-8.323-12.122-18.167-14.816-28.874-3.353-13.332-7.046-26.653-9.183-40.201-4.521-28.665-7.367-57.508-1.571-86.389 1.7-8.477 4.408-16.731 10.3-23.394 10.373-11.73 25.732-11.53 35.916.366 1.509 1.763 2.803 3.709 4.443 5.84"/><path fill="#F1F3F6" d="M1592.54 235.171c.665 1.584 1.792 2.857 1.652 3.97-.164 1.292-1.42 3.487-2.233 3.5-12.32.208-24.647.147-36.97.05-.867-.007-1.726-.793-2.535-1.19 3.15-15.121 18.445-58.349 21.896-61.251 6.067 18.29 12.08 36.415 18.19 54.921"/><path fill="#D7AE6F" d="M2308 244.001c-5.996.002-11.5.179-16.984-.078-2.288-.107-4.532-1.137-6.974-1.796 7.483-21.395 14.648-41.935 21.919-62.438.24-.68 1.55-.98 2.73-1.672 2.456 7.142 4.818 13.928 7.122 20.733 2.367 6.993 4.658 14.011 7.02 21.006 2.157 6.391 4.454 12.737 6.511 19.16 1.042 3.253-.192 5.138-3.857 5.104-5.662-.052-11.325-.017-17.487-.019m11.632-27.883-11.625-33.325-1.634-.22-19.589 59.09h40.992z"/><path fill="#F1F3F6" d="M1169.208 408.54c5.984-.083 10.457 2.459 12.38 7.327 1.672 4.236 2.04 9.506-2.064 12.943-2.511 2.102-5.926 3.92-9.107 4.26-6.577.704-13.27.311-19.915.417-2.59.04-3.99-.772-3.904-3.734.168-5.812.184-11.636-.004-17.446-.105-3.22 1.506-4.067 4.24-4.03 5.978.081 11.957.153 18.374.264"/><path fill="#E3E8ED" d="M618.37 446.688c-8.481.007-16.53.007-25.919.007l14.378-33.026 1.436-.057c1.589 3.525 3.204 7.038 4.759 10.577 2.653 6.037 5.246 12.1 7.91 18.131 1.047 2.37 1.367 4.268-2.564 4.368"/><path fill="#023363" d="M2030.803 115.768c1.59-.943 2.763-1.888 4.068-2.586 3.99-2.135 8.031-4.174 12.566-6.516 2.347 6.698 4.481 13.035 6.792 19.307 2.096 5.684 4.413 11.287 6.582 16.944 3.225 8.408 6.39 16.838 9.609 25.247 3.515 9.18 7.139 18.32 10.574 27.53 3.151 8.445 6.032 16.991 9.182 25.437 3.211 8.611 6.69 17.122 9.895 25.735 3.201 8.603 6.107 17.315 9.328 25.91 3.104 8.288 6.846 16.356 9.581 24.756 3.531 10.844 9.487 19.917 17.644 27.726 1.017.974 1.584 2.42 2.8 4.342h-110.556c1.863-2.33 2.809-4.213 4.326-5.298 11.736-8.386 14.063-19.068 8.938-32.269-3.493-8.995-5.982-18.377-9.217-27.48-.503-1.416-2.583-3.216-3.955-3.234-17.328-.226-34.66-.186-51.99-.144-4.087.01-4.95 3.29-5.817 6.338-1.35 4.745-2.397 9.583-3.902 14.276-4.4 13.717-3.155 26.507 8.513 36.523 3.703 3.18 7.152 6.657 10.246 11.136h-62.034c1.367-2.193 2.283-3.915 3.432-5.464 6.977-9.41 15.017-18.21 20.733-28.326 5.572-9.862 8.912-21.009 13.004-31.679 4.457-11.62 8.731-23.312 12.934-35.027 3.214-8.96 6.15-18.017 9.288-27.004 4.17-11.94 8.66-23.778 12.465-35.832.98-3.106.815-7.223-.405-10.234-2.4-5.917-5.937-11.369-8.946-17.043-1.209-2.28-.454-3.542 2.046-4.428 6.358-2.252 12.739-4.516 18.887-7.273 7.793-3.496 15.366-7.484 23.39-11.37m-34.375 79.776-15.34 46.124c1.813.473 3.172 1.126 4.536 1.135 11.637.077 23.276-.003 34.913.053 3.912.018 3.854-1.676 2.756-4.75-3.554-9.946-6.854-19.983-10.235-29.991-3.159-9.352-6.296-18.71-9.442-28.066l-1.468-.5c-1.855 5.07-3.71 10.141-5.72 15.995"/><path fill="#F1F3F6" d="M1279.186 437.498c7.915-12.181 21.364-12.682 29.194-1.446 4.138 5.94 3.1 16.665-2.148 22.185-5.335 5.611-13.655 6.726-20.602 2.759-6.654-3.8-10.086-12.955-7.61-20.331.317-.945.69-1.87 1.166-3.167"/><path fill="#E3E8ED" d="M796.438 440.216c-7.938-.001-15.437.089-22.93-.078-1.448-.032-3.38-.71-4.127-1.77-.492-.697.409-2.868 1.248-3.938 7.272-9.273 21.894-8.456 28.062 1.404 1.588 2.539 1.435 4.012-2.253 4.382M857.902 430.769c8.847-5.917 19.613-1.894 23.81 4.984 1.793 2.938 1.222 4.398-2.145 4.438-7.953.094-15.91.129-23.863-.014-3.641-.065-4.654-2.304-2.425-5.228 1.174-1.54 2.834-2.71 4.623-4.18M1087.136 432.819c.843 1.062 1.565 1.802 1.981 2.686.518 1.098 1.394 2.651.989 3.39-.443.808-2.168 1.248-3.343 1.265-7.634.112-15.273.138-22.907-.004-1.281-.024-3.313-.728-3.623-1.604-.387-1.094.295-2.977 1.134-4.024 5.293-6.6 16.318-10.032 25.77-1.71"/><path fill="#F1F3F6" d="M1726.448 463.103c-11.443.955-20.234-6.758-20.298-17.357-.061-9.98 8.412-18.183 18.253-17.674 7.737.4 13.724 6.028 15.355 14.434 1.52 7.834-2.123 15.72-8.738 18.826-1.35.635-2.77 1.124-4.572 1.77M985.95 451.57c-3.58 8.914-12.088 13.66-19.805 11.398-8.979-2.63-14.887-12.097-12.94-20.733 2.111-9.359 10.11-15.18 19.31-14.052 8.63 1.058 15.601 10.353 14.294 19.092-.196 1.31-.516 2.6-.859 4.295M1802.988 430.76c6.922-4.206 13.392-3.665 19.3.96 5.556 4.347 7.136 10.313 6.107 17.278-1.145 7.757-5.883 11.96-12.925 14.014-6.113 1.782-14.11-1.694-17.675-7.391-4.216-6.737-3.897-15.138.913-20.949 1.147-1.386 2.617-2.504 4.28-3.911M1873.933 428.435c8.71-1.59 15.134 1.368 19.479 8.47 3.523 5.76 2.646 14.754-1.848 20.116-4.377 5.224-9.963 7.741-16.821 5.996-7.282-1.853-12.676-8.005-13.28-15.757-.521-6.696 2.074-12.361 7.698-16.34 1.347-.953 2.91-1.6 4.772-2.485M1340.743 444.273c2.07-9.568 7.29-15.03 14.55-16.123 8.391-1.263 18.14 4.845 19.197 15.798.874 9.069-5.041 17.645-14.13 19.254-8.938 1.583-17.721-4.97-19.4-14.53-.229-1.298-.18-2.645-.217-4.399M1223.122 429.883c12.128-5.534 25.163 3.8 24.054 16.802-.793 9.307-6.925 15.917-15.506 16.716-7.872.734-15.293-4.76-17.768-13.153-2.288-7.76 1.415-16.176 9.22-20.365"/><path fill="#BA7301" d="M781 323.874h220.15c0 9.09-.2 17.688.088 26.27.135 3.986-1.09 5.066-5.058 5.046-31.805-.157-63.611-.088-95.417-.088H754.242v-31.227zm133.5 29.124c26.328 0 52.657-.064 78.984.067 4.03.02 5.812-1.112 5.581-5.382-.277-5.15-.441-10.363.04-15.483.49-5.208-1.39-6.323-6.382-6.312-76.818.161-153.637.112-230.455.112-.833 0-1.673.071-2.498-.01-2.775-.277-3.882.87-3.809 3.713.146 5.662.032 11.33.044 16.996.014 6.278.026 6.296 6.525 6.296 50.323.005 100.647.003 151.97.003"/><path fill="#013262" d="M1926.16 432.02v38.694h-6.579v-49.557h6.579z"/><path fill="#113D6A" d="M1963.744 404.808c-.206-3.55.642-6.499 4.044-6.763 2.241-.174 5.583.642 6.648 2.219 1.079 1.596.787 5.208-.366 6.995-2.407 3.732-7.775 2.463-10.326-2.45"/><path fill="#FBFBFC" d="m2319.754 216.5 8.022 25.163h-40.992l19.589-59.09 1.634.22c3.875 11.108 7.75 22.217 11.747 33.707"/><path fill="#F1F3F6" d="M1996.506 195.153c1.932-5.463 3.788-10.534 5.643-15.605l1.468.5c3.146 9.356 6.283 18.715 9.442 28.067 3.38 10.008 6.68 20.045 10.235 29.99 1.098 3.075 1.156 4.77-2.756 4.75-11.637-.055-23.276.025-34.913-.052-1.364-.009-2.723-.662-4.536-1.135 5.239-15.752 10.29-30.938 15.417-46.515"/><path fill="#C07F0A" d="M914 352.999c-50.823 0-101.147.002-151.47-.003-6.499 0-6.51-.018-6.525-6.296-.012-5.666.102-11.334-.044-16.996-.073-2.843 1.034-3.99 3.81-3.714.824.082 1.664.011 2.497.011 76.818 0 153.637.05 230.455-.112 4.991-.01 6.871 1.104 6.382 6.312-.481 5.12-.317 10.333-.04 15.483.23 4.27-1.551 5.402-5.58 5.382-26.328-.131-52.657-.067-79.485-.067"/></svg>